<svg id="Layer_1" data-name="Layer 1" xmlns="http://www.w3.org/2000/svg" viewBox="0 0 1033.56 754.49"><defs><style>.cls-1{fill:#d3d319;}.cls-2{fill:#858985;}.cls-3{fill:#0faa0a;}</style></defs><path class="cls-1" d="M668.62,1151H255.74a124.54,124.54,0,0,1,0-249.08h775.79a123.2,123.2,0,0,0,0-246.39H212.28a5,5,0,1,1,0-10h819.25c73.46,0,133.23,59.77,133.23,133.23S1105,912,1031.53,912H255.74a114.5,114.5,0,0,0,0,229H668.62a5,5,0,0,1,0,10Z" transform="translate(-131.2 -484.64)"/><path class="cls-1" d="M246,682.38a2.87,2.87,0,0,1-2.87-2.87v-59.4a2.87,2.87,0,0,1,5.74,0v59.4A2.88,2.88,0,0,1,246,682.38Z" transform="translate(-131.2 -484.64)"/><path class="cls-1" d="M465.32,682.38a2.88,2.88,0,0,1-2.87-2.87v-59.4a2.87,2.87,0,0,1,5.74,0v59.4A2.88,2.88,0,0,1,465.32,682.38Z" transform="translate(-131.2 -484.64)"/><path class="cls-1" d="M344.64,937.72a2.87,2.87,0,0,1-2.86-2.87v-59.4a2.87,2.87,0,1,1,5.73,0v59.4A2.87,2.87,0,0,1,344.64,937.72Z" transform="translate(-131.2 -484.64)"/><path class="cls-1" d="M350.66,1178.57a2.87,2.87,0,0,1-2.86-2.87v-59.4a2.87,2.87,0,1,1,5.73,0v59.4A2.87,2.87,0,0,1,350.66,1178.57Z" transform="translate(-131.2 -484.64)"/><path class="cls-1" d="M576.56,1178.57a2.87,2.87,0,0,1-2.86-2.87v-59.4a2.87,2.87,0,1,1,5.73,0v59.4A2.87,2.87,0,0,1,576.56,1178.57Z" transform="translate(-131.2 -484.64)"/><path class="cls-1" d="M507.51,937.72a2.87,2.87,0,0,1-2.86-2.87v-59.4a2.87,2.87,0,1,1,5.73,0v59.4A2.87,2.87,0,0,1,507.51,937.72Z" transform="translate(-131.2 -484.64)"/><path class="cls-1" d="M664.82,937.72a2.87,2.87,0,0,1-2.87-2.87v-59.4a2.87,2.87,0,0,1,5.74,0v59.4A2.88,2.88,0,0,1,664.82,937.72Z" transform="translate(-131.2 -484.64)"/><path class="cls-1" d="M823.38,937.72a2.88,2.88,0,0,1-2.87-2.87v-59.4a2.87,2.87,0,0,1,5.74,0v59.4A2.88,2.88,0,0,1,823.38,937.72Z" transform="translate(-131.2 -484.64)"/><path class="cls-1" d="M982.29,937.72a2.87,2.87,0,0,1-2.87-2.87v-59.4a2.87,2.87,0,1,1,5.73,0v59.4A2.87,2.87,0,0,1,982.29,937.72Z" transform="translate(-131.2 -484.64)"/><path class="cls-1" d="M678.54,682.38a2.87,2.87,0,0,1-2.87-2.87v-59.4a2.87,2.87,0,0,1,5.74,0v59.4A2.88,2.88,0,0,1,678.54,682.38Z" transform="translate(-131.2 -484.64)"/><path class="cls-1" d="M904.14,682.38a2.87,2.87,0,0,1-2.87-2.87v-59.4a2.87,2.87,0,0,1,5.73,0v59.4A2.87,2.87,0,0,1,904.14,682.38Z" transform="translate(-131.2 -484.64)"/><path class="cls-2" d="M194.78,699.3h8.58v1.84h-7.07l-.69,3.8a6.05,6.05,0,0,1,3.44-1c2.37,0,5.37,1,5.37,4.66,0,3-2.23,5-5.87,5-3.26,0-5.37-1.77-5.49-4.06h2.07c.42,1.71,1.45,2.37,3.58,2.37,1.79,0,3.58-.68,3.58-3.2,0-2.13-1.57-3-3.52-3a4.16,4.16,0,0,0-3.34,1.33l-1.93-.13Z" transform="translate(-131.2 -484.64)"/><path class="cls-2" d="M212.3,699c4.43,0,5.81,3.3,5.81,7.3s-1.38,7.3-5.81,7.3-5.81-3.3-5.81-7.3S207.88,699,212.3,699Zm0,1.69c-3.43,0-3.67,3.94-3.67,5.61s.24,5.61,3.67,5.61,3.68-3.94,3.68-5.61S215.74,700.66,212.3,700.66Z" transform="translate(-131.2 -484.64)"/><path class="cls-2" d="M225.73,699c4.42,0,5.81,3.3,5.81,7.3s-1.39,7.3-5.81,7.3-5.81-3.3-5.81-7.3S221.31,699,225.73,699Zm0,1.69c-3.44,0-3.68,3.94-3.68,5.61s.24,5.61,3.68,5.61,3.68-3.94,3.68-5.61S229.17,700.66,225.73,700.66Z" transform="translate(-131.2 -484.64)"/><path class="cls-2" d="M241.6,708.52c0,2.58,2.45,3.24,4.63,3.24s3.88-.87,3.88-2.43c0-1.31-1-1.85-2.68-2.13l-3.25-.55c-1.71-.28-4.27-1-4.27-3.76,0-2.61,2.07-4.36,5.75-4.36,2.88,0,5.91,1.05,6.11,4.5h-2.13c-.18-1.12-.82-2.65-4.26-2.65-1.57,0-3.34.66-3.34,2.35,0,.89.59,1.59,2.36,1.89l3.51.61c1.13.2,4.33.74,4.33,3.67,0,3.66-3.28,4.71-6.18,4.71-3.23,0-6.59-1.13-6.59-5.09Z" transform="translate(-131.2 -484.64)"/><path class="cls-2" d="M259.43,702.35c4.1,0,6.11,2.59,6.11,5.63s-2,5.63-6.11,5.63-6.11-2.59-6.11-5.63S255.33,702.35,259.43,702.35Zm0,1.69a3.94,3.94,0,1,0,4,3.94A3.68,3.68,0,0,0,259.43,704Z" transform="translate(-131.2 -484.64)"/><path class="cls-2" d="M267.52,698.77h2v14.48h-2Z" transform="translate(-131.2 -484.64)"/><path class="cls-2" d="M281.29,711.9h0a5,5,0,0,1-4,1.71,5.57,5.57,0,1,1,0-11.14,4.88,4.88,0,0,1,4,1.71h0v-5.41h2v14.48h-2Zm-3.78,0a3.88,3.88,0,1,0-3.86-3.88A3.63,3.63,0,0,0,277.51,711.92Z" transform="translate(-131.2 -484.64)"/><path class="cls-2" d="M295.24,703.1H291v-1.57h.49c3.58,0,4.1-1.69,4.18-2.64h1.67v14.36h-2.13Z" transform="translate(-131.2 -484.64)"/><path class="cls-2" d="M142.29,757.08a12.28,12.28,0,0,1,0-18.17h1.51a13.48,13.48,0,0,0,0,18.17Z" transform="translate(-131.2 -484.64)"/><path class="cls-2" d="M150.53,747c-2.37-.38-5.11-1.07-5.11-4s2.7-4,5.11-4V737.2h1V739c3.46,0,5,1.67,5.21,3.92h-2c-.18-1.47-1.37-2.15-3.2-2.23v4.52c3.94.64,5.59,1.67,5.59,4.18,0,3-2.77,4.2-5.59,4.2v1.79h-1v-1.79c-2.9,0-5.37-1.54-5.39-4.46h2c.08,1,.62,2.61,3.38,2.78Zm0-6.31c-1.91.1-3.1.82-3.1,2.19,0,1.21,1.13,2,3.1,2.21Zm1,11.22c2.46,0,3.58-1,3.58-2.3s-1-2.09-3.58-2.43Z" transform="translate(-131.2 -484.64)"/><path class="cls-2" d="M160.43,739.31H169v1.85h-7.08l-.68,3.8a6,6,0,0,1,3.44-1c2.37,0,5.36,1,5.36,4.66,0,3-2.23,5-5.87,5-3.25,0-5.36-1.77-5.49-4.06h2.08c.42,1.71,1.44,2.38,3.57,2.38,1.79,0,3.58-.69,3.58-3.2,0-2.13-1.57-3.06-3.52-3.06a4.17,4.17,0,0,0-3.33,1.33l-1.93-.12Z" transform="translate(-131.2 -484.64)"/><path class="cls-2" d="M178,739c4.42,0,5.81,3.3,5.81,7.3s-1.39,7.29-5.81,7.29-5.81-3.29-5.81-7.29S173.54,739,178,739Zm0,1.69c-3.44,0-3.68,3.94-3.68,5.61s.24,5.61,3.68,5.61,3.68-3.95,3.68-5.61S181.4,740.68,178,740.68Z" transform="translate(-131.2 -484.64)"/><path class="cls-2" d="M191.38,739c4.42,0,5.81,3.3,5.81,7.3s-1.39,7.29-5.81,7.29-5.81-3.29-5.81-7.29S187,739,191.38,739Zm0,1.69c-3.44,0-3.68,3.94-3.68,5.61s.24,5.61,3.68,5.61,3.68-3.95,3.68-5.61S194.82,740.68,191.38,740.68Z" transform="translate(-131.2 -484.64)"/><path class="cls-2" d="M204.81,739c4.42,0,5.81,3.3,5.81,7.3s-1.39,7.29-5.81,7.29-5.82-3.29-5.82-7.29S200.38,739,204.81,739Zm0,1.69c-3.44,0-3.68,3.94-3.68,5.61s.24,5.61,3.68,5.61,3.67-3.95,3.67-5.61S208.24,740.68,204.81,740.68Z" transform="translate(-131.2 -484.64)"/><path class="cls-2" d="M212.12,757.08a13.51,13.51,0,0,0,0-18.17h1.5a12.26,12.26,0,0,1,0,18.17Z" transform="translate(-131.2 -484.64)"/><path class="cls-2" d="M228,738.91h11.54v1.85h-9.41v4.16h9.13v1.85h-9.13v4.64h9.61v1.85H228Z" transform="translate(-131.2 -484.64)"/><path class="cls-2" d="M246,740.76h-5.43v-1.85h13v1.85h-5.43v12.5H246Z" transform="translate(-131.2 -484.64)"/><path class="cls-2" d="M267,746.51h-9.77v6.75h-2.13V738.91h2.13v5.75H267v-5.75h2.13v14.35H267Z" transform="translate(-131.2 -484.64)"/><path class="cls-2" d="M286.81,745.52h6.6v7.74h-1.53l-.36-2a6.65,6.65,0,0,1-5.51,2.41c-5.75,0-7.58-4.14-7.58-7.29,0-5.55,3.8-7.78,7.52-7.78,2.95,0,6.31.92,7.22,4.88h-2.25c-.67-2-2.16-3-4.87-3-3.8,0-5.49,2.69-5.49,5.75,0,4.06,2.6,5.62,5.59,5.62s5.15-1.85,5.37-4.4h-4.71Z" transform="translate(-131.2 -484.64)"/><path class="cls-2" d="M296.12,738.79h2V741h-2Zm0,3.94h2v10.53h-2Z" transform="translate(-131.2 -484.64)"/><path class="cls-2" d="M308.74,742.73H311l-4.74,10.53H304l-4.78-10.53h2.31l3.62,8.32Z" transform="translate(-131.2 -484.64)"/><path class="cls-2" d="M313.78,748.6a3.73,3.73,0,0,0,3.88,3.34,3.59,3.59,0,0,0,3.4-1.87h2.13a5.69,5.69,0,0,1-5.43,3.55c-4.1,0-6.11-2.59-6.11-5.62s2-5.63,6.11-5.63c2.77,0,5.71,1.6,5.71,6v.26Zm7.56-1.57a3.47,3.47,0,0,0-3.68-3,3.66,3.66,0,0,0-3.82,3Z" transform="translate(-131.2 -484.64)"/><path class="cls-2" d="M325.49,746c.26-2.64,2.07-3.66,5.23-3.66,2.15,0,4.85.54,4.85,3V751c0,.62.28.91.9.91a4,4,0,0,0,.7-.08v1.4a10.25,10.25,0,0,1-1.56.12c-1,0-1.67-.28-1.81-1.46-.81,1.08-2.78,1.7-4.49,1.7-3.49,0-4.28-1.81-4.28-3.17,0-1.93,1.15-2.92,4.52-3.28l2.3-.24c1.12-.12,1.83-.32,1.83-1.27,0-1.44-1.41-1.73-3-1.73s-3.2.47-3.26,2.1Zm8.19,1.72c-.31.35-.85.49-2,.63l-2.28.28c-1.56.2-2.39.62-2.39,1.73s1,1.67,2.45,1.67c2.28,0,4.19-1.21,4.19-3Z" transform="translate(-131.2 -484.64)"/><path class="cls-2" d="M353.23,742.73h2.13l-4.16,10.53H349l-2.63-8h0l-2.64,8h-2.13l-4.08-10.53h2.23l2.92,8h0l2.61-8h2.21l2.68,8h0Z" transform="translate(-131.2 -484.64)"/><path class="cls-2" d="M356.74,746c.26-2.64,2.07-3.66,5.23-3.66,2.15,0,4.84.54,4.84,3V751a.79.79,0,0,0,.91.91,4,4,0,0,0,.7-.08v1.4a10.28,10.28,0,0,1-1.57.12c-1,0-1.67-.28-1.81-1.46-.8,1.08-2.77,1.7-4.48,1.7-3.5,0-4.28-1.81-4.28-3.17,0-1.93,1.15-2.92,4.52-3.28l2.29-.24c1.13-.12,1.83-.32,1.83-1.27,0-1.44-1.4-1.73-3-1.73s-3.2.47-3.26,2.1Zm8.18,1.72c-.3.35-.84.49-2,.63l-2.27.28c-1.57.2-2.39.62-2.39,1.73s1,1.67,2.45,1.67c2.27,0,4.18-1.21,4.18-3Z" transform="translate(-131.2 -484.64)"/><path class="cls-2" d="M378,742.73h2.25l-5.51,12.34c-1,2.23-1.79,2.62-3.66,2.62-.5,0-1-.05-1.53-.08v-1.69c.36,0,.69.08,1.17.08,1.24,0,1.55-.27,2.19-1.61l.46-1-4.86-10.69h2.31l3.62,8.32Z" transform="translate(-131.2 -484.64)"/><path class="cls-2" d="M426.11,693.67h-3.59v-1.34h.41c3.06,0,3.51-1.44,3.58-2.25h1.43v12.28h-1.83Z" transform="translate(-131.2 -484.64)"/><path class="cls-2" d="M436.07,690.15c3.78,0,5,2.82,5,6.24s-1.19,6.24-5,6.24-5-2.82-5-6.24S432.29,690.15,436.07,690.15Zm0,1.44c-2.94,0-3.14,3.37-3.14,4.8s.2,4.8,3.14,4.8,3.15-3.37,3.15-4.8S439,691.59,436.07,691.59Z" transform="translate(-131.2 -484.64)"/><path class="cls-2" d="M447.56,690.15c3.79,0,5,2.82,5,6.24s-1.18,6.24-5,6.24-5-2.82-5-6.24S443.78,690.15,447.56,690.15Zm0,1.44c-2.94,0-3.14,3.37-3.14,4.8s.2,4.8,3.14,4.8,3.15-3.37,3.15-4.8S450.5,691.59,447.56,691.59Z" transform="translate(-131.2 -484.64)"/><path class="cls-2" d="M459.06,690.15c3.78,0,5,2.82,5,6.24s-1.18,6.24-5,6.24-5-2.82-5-6.24S455.27,690.15,459.06,690.15Zm0,1.44c-2.94,0-3.15,3.37-3.15,4.8s.21,4.8,3.15,4.8,3.14-3.37,3.14-4.8S462,691.59,459.06,691.59Z" transform="translate(-131.2 -484.64)"/><path class="cls-2" d="M466.9,698.32c0,2.2,2.1,2.76,4,2.76s3.32-.74,3.32-2.08c0-1.11-.88-1.58-2.29-1.82l-2.79-.46c-1.46-.24-3.64-.83-3.64-3.22,0-2.23,1.77-3.73,4.92-3.73,2.46,0,5.05.89,5.22,3.85h-1.82c-.15-1-.7-2.27-3.64-2.27-1.35,0-2.86.57-2.86,2,0,.76.5,1.36,2,1.62l3,.52c1,.17,3.7.63,3.7,3.14,0,3.13-2.8,4-5.28,4-2.77,0-5.64-1-5.64-4.35Z" transform="translate(-131.2 -484.64)"/><path class="cls-2" d="M482.16,693c3.51,0,5.23,2.21,5.23,4.81s-1.72,4.82-5.23,4.82-5.23-2.22-5.23-4.82S478.65,693,482.16,693Zm0,1.44a3.37,3.37,0,1,0,3.41,3.37A3.15,3.15,0,0,0,482.16,694.48Z" transform="translate(-131.2 -484.64)"/><path class="cls-2" d="M489.1,690h1.72v12.38H489.1Z" transform="translate(-131.2 -484.64)"/><path class="cls-2" d="M500.88,701.2h0a4.29,4.29,0,0,1-3.42,1.47,4.77,4.77,0,1,1,0-9.53,4.2,4.2,0,0,1,3.42,1.46h0V690h1.72v12.38h-1.72Zm-3.24,0a3.32,3.32,0,1,0-3.3-3.32A3.12,3.12,0,0,0,497.64,701.22Z" transform="translate(-131.2 -484.64)"/><path class="cls-2" d="M422.4,712.65c0-2.53,1.44-4.32,4.73-4.32,3.09,0,4.5,1.65,4.5,3.84,0,4.19-5.84,4-7.24,6.79h7.24v1.58h-9.46c.35-5.59,7.64-4.9,7.64-8.39,0-1.74-1.19-2.37-2.58-2.37-2.15,0-3.06,1.18-3.11,2.87Z" transform="translate(-131.2 -484.64)"/><path class="cls-2" d="M438.29,723.81a10.51,10.51,0,0,1,0-15.55h1.29a11.55,11.55,0,0,0,0,15.55Z" transform="translate(-131.2 -484.64)"/><path class="cls-2" d="M445.34,715.18c-2-.33-4.36-.91-4.36-3.41s2.3-3.44,4.36-3.44V706.8h.83v1.53c3,0,4.3,1.43,4.45,3.36H448.9c-.15-1.26-1.17-1.84-2.73-1.91v3.87c3.37.55,4.78,1.42,4.78,3.57,0,2.55-2.37,3.6-4.78,3.6v1.53h-.83v-1.53c-2.47,0-4.59-1.33-4.6-3.82h1.72c.06.86.53,2.23,2.88,2.37Zm0-5.4c-1.63.08-2.64.7-2.64,1.87s1,1.7,2.64,1.89Zm.83,9.59c2.1,0,3.06-.87,3.06-2s-.82-1.79-3.06-2.08Z" transform="translate(-131.2 -484.64)"/><path class="cls-2" d="M453.83,708.61h7.34v1.58h-6.05l-.59,3.25a5.17,5.17,0,0,1,2.94-.86c2,0,4.59.89,4.59,4,0,2.56-1.9,4.25-5,4.25-2.78,0-4.59-1.52-4.69-3.48h1.77c.36,1.46,1.24,2,3.06,2,1.53,0,3.06-.58,3.06-2.73,0-1.82-1.34-2.61-3-2.61a3.56,3.56,0,0,0-2.85,1.13l-1.65-.1Z" transform="translate(-131.2 -484.64)"/><path class="cls-2" d="M468.83,708.33c3.78,0,5,2.82,5,6.25s-1.19,6.24-5,6.24-5-2.82-5-6.24S465,708.33,468.83,708.33Zm0,1.45c-2.94,0-3.15,3.37-3.15,4.8s.21,4.79,3.15,4.79S472,716,472,714.58,471.77,709.78,468.83,709.78Z" transform="translate(-131.2 -484.64)"/><path class="cls-2" d="M480.32,708.33c3.78,0,5,2.82,5,6.25s-1.19,6.24-5,6.24-5-2.82-5-6.24S476.54,708.33,480.32,708.33Zm0,1.45c-2.94,0-3.15,3.37-3.15,4.8s.21,4.79,3.15,4.79,3.15-3.37,3.15-4.79S483.26,709.78,480.32,709.78Z" transform="translate(-131.2 -484.64)"/><path class="cls-2" d="M491.81,708.33c3.78,0,5,2.82,5,6.25s-1.19,6.24-5,6.24-5-2.82-5-6.24S488,708.33,491.81,708.33Zm0,1.45c-2.94,0-3.15,3.37-3.15,4.8s.21,4.79,3.15,4.79S495,716,495,714.58,494.75,709.78,491.81,709.78Z" transform="translate(-131.2 -484.64)"/><path class="cls-2" d="M498.08,723.81a11.55,11.55,0,0,0,0-15.55h1.29a10.51,10.51,0,0,1,0,15.55Z" transform="translate(-131.2 -484.64)"/><path class="cls-2" d="M398,729.8h9.87v1.58h-8.05v3.56h7.81v1.58h-7.81v4H408v1.58H398Z" transform="translate(-131.2 -484.64)"/><path class="cls-2" d="M413.41,731.38h-4.65V729.8h11.11v1.58h-4.64v10.69h-1.82Z" transform="translate(-131.2 -484.64)"/><path class="cls-2" d="M431.4,736.3H423v5.77h-1.82V729.8H423v4.91h8.36V729.8h1.82v12.27H431.4Z" transform="translate(-131.2 -484.64)"/><path class="cls-2" d="M449.65,731.89h0l-3.39,10.18h-2l-4-12.27h2l3.14,10h0l3.28-10h2.17l3.37,10h0l3.13-10h1.89l-4.16,12.27h-2Z" transform="translate(-131.2 -484.64)"/><path class="cls-2" d="M472.72,733.06h1.82l-3.56,9h-1.87l-2.25-6.87h0l-2.25,6.87h-1.82l-3.49-9h1.91l2.49,6.88h0l2.24-6.88h1.89l2.29,6.88h0Z" transform="translate(-131.2 -484.64)"/><path class="cls-2" d="M475.75,729.69h1.72v1.9h-1.72Zm0,3.37h1.72v9h-1.72Z" transform="translate(-131.2 -484.64)"/><path class="cls-2" d="M479.57,733.06h1.72v1.36h0a4,4,0,0,1,3.52-1.67c2.17,0,3.78.93,3.78,3.18v6.14h-1.72v-5.79c0-1.33-.82-2.08-2.66-2.08a2.7,2.7,0,0,0-3,2.68v5.19h-1.72Z" transform="translate(-131.2 -484.64)"/><path class="cls-2" d="M490.74,733.06h1.72v1.36h0a4.06,4.06,0,0,1,3.53-1.67c2.16,0,3.78.93,3.78,3.18v6.14h-1.72v-5.79c0-1.33-.82-2.08-2.66-2.08a2.69,2.69,0,0,0-3,2.68v5.19h-1.72Z" transform="translate(-131.2 -484.64)"/><path class="cls-2" d="M503.33,738.08a3.2,3.2,0,0,0,3.32,2.86,3,3,0,0,0,2.9-1.6h1.83a4.86,4.86,0,0,1-4.65,3c-3.5,0-5.22-2.21-5.22-4.81s1.72-4.82,5.22-4.82c2.38,0,4.89,1.38,4.89,5.11v.22Zm6.47-1.34a3,3,0,0,0-3.15-2.54,3.14,3.14,0,0,0-3.27,2.54Z" transform="translate(-131.2 -484.64)"/><path class="cls-2" d="M513.38,733.06h1.72v1.65h0a3.49,3.49,0,0,1,3.1-2,3.23,3.23,0,0,1,1,.11v1.85a4.92,4.92,0,0,0-1.22-.17,2.68,2.68,0,0,0-2.89,3v4.57h-1.72Z" transform="translate(-131.2 -484.64)"/><path class="cls-2" d="M521.58,739.24c0,.8.66,1.8,2.84,1.8s2.75-.77,2.75-1.41-.33-1-1.7-1.2l-2.84-.38a2.52,2.52,0,0,1-2.44-2.39c0-1.82,1.58-2.91,4.11-2.91,3,0,4.25,1.28,4.4,3H527c-.05-.91-.91-1.68-2.7-1.68-1.1,0-2.37.3-2.37,1.37,0,.6.28.95,1.5,1.12l2.44.32c2.27.31,3.14,1.12,3.14,2.39,0,2.1-1.77,3.08-4.52,3.08-2.06,0-4.42-.53-4.61-3.14Z" transform="translate(-131.2 -484.64)"/><path class="cls-2" d="M634.85,693.8c0-2.52,1.44-4.31,4.73-4.31,3.09,0,4.5,1.65,4.5,3.83,0,4.2-5.84,4-7.24,6.79h7.24v1.59h-9.45c.34-5.59,7.63-4.9,7.63-8.39,0-1.74-1.19-2.38-2.58-2.38-2.15,0-3.06,1.19-3.11,2.87Z" transform="translate(-131.2 -484.64)"/><path class="cls-2" d="M651.29,689.49c3.79,0,5,2.82,5,6.24s-1.18,6.24-5,6.24-5-2.82-5-6.24S647.51,689.49,651.29,689.49Zm0,1.44c-2.94,0-3.14,3.37-3.14,4.8s.2,4.8,3.14,4.8,3.15-3.37,3.15-4.8S654.23,690.93,651.29,690.93Z" transform="translate(-131.2 -484.64)"/><path class="cls-2" d="M662.79,689.49c3.78,0,5,2.82,5,6.24s-1.18,6.24-5,6.24-5-2.82-5-6.24S659,689.49,662.79,689.49Zm0,1.44c-2.94,0-3.15,3.37-3.15,4.8s.21,4.8,3.15,4.8,3.14-3.37,3.14-4.8S665.73,690.93,662.79,690.93Z" transform="translate(-131.2 -484.64)"/><path class="cls-2" d="M674.28,689.49c3.78,0,5,2.82,5,6.24s-1.19,6.24-5,6.24-5-2.82-5-6.24S670.49,689.49,674.28,689.49Zm0,1.44c-2.94,0-3.15,3.37-3.15,4.8s.21,4.8,3.15,4.8,3.14-3.37,3.14-4.8S677.22,690.93,674.28,690.93Z" transform="translate(-131.2 -484.64)"/><path class="cls-2" d="M687.87,697.66c0,2.2,2.1,2.76,4,2.76s3.32-.74,3.32-2.08c0-1.11-.87-1.58-2.28-1.82l-2.79-.46c-1.46-.24-3.64-.83-3.64-3.22,0-2.23,1.77-3.73,4.91-3.73,2.46,0,5.06.89,5.23,3.85h-1.82c-.16-1-.71-2.27-3.65-2.27-1.34,0-2.85.57-2.85,2,0,.76.5,1.36,2,1.62l3,.52c1,.17,3.7.63,3.7,3.14,0,3.13-2.81,4-5.28,4-2.77,0-5.64-1-5.64-4.35Z" transform="translate(-131.2 -484.64)"/><path class="cls-2" d="M703.13,692.38c3.51,0,5.22,2.22,5.22,4.81s-1.71,4.82-5.22,4.82-5.23-2.22-5.23-4.82S699.62,692.38,703.13,692.38Zm0,1.44a3.37,3.37,0,1,0,3.4,3.37A3.16,3.16,0,0,0,703.13,693.82Z" transform="translate(-131.2 -484.64)"/><path class="cls-2" d="M710.06,689.32h1.72V701.7h-1.72Z" transform="translate(-131.2 -484.64)"/><path class="cls-2" d="M721.84,700.54h0a4.29,4.29,0,0,1-3.42,1.47,4.77,4.77,0,1,1,0-9.53,4.2,4.2,0,0,1,3.42,1.46h0v-4.62h1.72V701.7h-1.72Zm-3.23,0a3.32,3.32,0,1,0-3.3-3.32A3.1,3.1,0,0,0,718.61,700.56Z" transform="translate(-131.2 -484.64)"/><path class="cls-2" d="M640.58,712.73c0-2.53,1.44-4.32,4.73-4.32,3.09,0,4.5,1.65,4.5,3.83,0,4.2-5.84,4-7.24,6.8h7.24v1.58h-9.45c.34-5.59,7.63-4.9,7.63-8.39,0-1.74-1.19-2.38-2.58-2.38-2.15,0-3.06,1.19-3.11,2.88Z" transform="translate(-131.2 -484.64)"/><path class="cls-2" d="M656.47,723.88a10.5,10.5,0,0,1,0-15.54h1.29a11.53,11.53,0,0,0,0,15.54Z" transform="translate(-131.2 -484.64)"/><path class="cls-2" d="M663.53,715.25c-2-.32-4.37-.91-4.37-3.4s2.3-3.44,4.37-3.44v-1.53h.82v1.53c3,0,4.3,1.43,4.46,3.35h-1.72c-.16-1.25-1.17-1.84-2.74-1.91v3.87c3.37.55,4.78,1.43,4.78,3.58,0,2.54-2.37,3.59-4.78,3.59v1.53h-.82v-1.53c-2.48,0-4.59-1.32-4.61-3.81h1.72c.07.85.53,2.23,2.89,2.37Zm0-5.4c-1.64.09-2.65.71-2.65,1.88s1,1.7,2.65,1.89Zm.82,9.6c2.1,0,3.06-.88,3.06-2s-.82-1.79-3.06-2.08Z" transform="translate(-131.2 -484.64)"/><path class="cls-2" d="M673.2,711.93h-3.6v-1.34H670c3.07,0,3.51-1.44,3.58-2.25H675v12.28H673.2Z" transform="translate(-131.2 -484.64)"/><path class="cls-2" d="M683.16,708.41c3.78,0,5,2.82,5,6.24s-1.18,6.24-5,6.24-5-2.82-5-6.24S679.37,708.41,683.16,708.41Zm0,1.44c-2.94,0-3.15,3.37-3.15,4.8s.21,4.8,3.15,4.8,3.14-3.37,3.14-4.8S686.1,709.85,683.16,709.85Z" transform="translate(-131.2 -484.64)"/><path class="cls-2" d="M694.65,708.41c3.78,0,5,2.82,5,6.24s-1.19,6.24-5,6.24-5-2.82-5-6.24S690.86,708.41,694.65,708.41Zm0,1.44c-2.94,0-3.15,3.37-3.15,4.8s.21,4.8,3.15,4.8,3.14-3.37,3.14-4.8S697.59,709.85,694.65,709.85Z" transform="translate(-131.2 -484.64)"/><path class="cls-2" d="M706.14,708.41c3.78,0,5,2.82,5,6.24s-1.19,6.24-5,6.24-5-2.82-5-6.24S702.36,708.41,706.14,708.41Zm0,1.44c-2.94,0-3.15,3.37-3.15,4.8s.21,4.8,3.15,4.8,3.14-3.37,3.14-4.8S709.08,709.85,706.14,709.85Z" transform="translate(-131.2 -484.64)"/><path class="cls-2" d="M712.4,723.88a11.53,11.53,0,0,0,0-15.54h1.29a10.5,10.5,0,0,1,0,15.54Z" transform="translate(-131.2 -484.64)"/><path class="cls-2" d="M622,727.66h9.87v1.58h-8v3.56h7.8v1.58h-7.8v4h8.22v1.58H622Z" transform="translate(-131.2 -484.64)"/><path class="cls-2" d="M637.46,729.24h-4.64v-1.58h11.11v1.58h-4.64v10.7h-1.83Z" transform="translate(-131.2 -484.64)"/><path class="cls-2" d="M655.45,734.16H647.1v5.78h-1.82V727.66h1.82v4.92h8.35v-4.92h1.83v12.28h-1.83Z" transform="translate(-131.2 -484.64)"/><path class="cls-2" d="M673.71,729.76h0l-3.38,10.18h-2l-4-12.28h2l3.15,10h0l3.29-10h2.16l3.37,10h0l3.13-10h1.89l-4.16,12.28h-2Z" transform="translate(-131.2 -484.64)"/><path class="cls-2" d="M684.21,727.56h1.72v1.89h-1.72Zm0,3.37h1.72v9h-1.72Z" transform="translate(-131.2 -484.64)"/><path class="cls-2" d="M688,730.93h1.72v1.36h0a4,4,0,0,1,3.52-1.67c2.17,0,3.79.93,3.79,3.18v6.14h-1.72v-5.8c0-1.32-.83-2.08-2.67-2.08a2.69,2.69,0,0,0-3,2.69v5.19H688Z" transform="translate(-131.2 -484.64)"/><path class="cls-2" d="M699.19,730.93h1.72v1.36h0a4,4,0,0,1,3.53-1.67c2.17,0,3.78.93,3.78,3.18v6.14h-1.72v-5.8c0-1.32-.82-2.08-2.66-2.08a2.69,2.69,0,0,0-3,2.69v5.19h-1.72Z" transform="translate(-131.2 -484.64)"/><path class="cls-2" d="M711.78,736a3.19,3.19,0,0,0,3.32,2.85,3,3,0,0,0,2.91-1.6h1.82a4.86,4.86,0,0,1-4.64,3c-3.51,0-5.23-2.22-5.23-4.82s1.72-4.81,5.23-4.81c2.37,0,4.88,1.37,4.88,5.11V736Zm6.47-1.34a3,3,0,0,0-3.15-2.55,3.14,3.14,0,0,0-3.27,2.55Z" transform="translate(-131.2 -484.64)"/><path class="cls-2" d="M721.83,730.93h1.72v1.65h0a3.47,3.47,0,0,1,3.1-2,3.6,3.6,0,0,1,1,.1v1.86a4.92,4.92,0,0,0-1.22-.17,2.68,2.68,0,0,0-2.89,3v4.58h-1.72Z" transform="translate(-131.2 -484.64)"/><path class="cls-2" d="M730,737.1c0,.81.65,1.81,2.83,1.81s2.75-.78,2.75-1.41-.32-1-1.7-1.21l-2.84-.38a2.52,2.52,0,0,1-2.44-2.39c0-1.82,1.58-2.9,4.11-2.9,3,0,4.25,1.27,4.4,3h-1.72c0-.92-.91-1.69-2.7-1.69-1.1,0-2.37.31-2.37,1.38,0,.6.28.94,1.5,1.11l2.44.33c2.27.31,3.15,1.12,3.15,2.39,0,2.1-1.78,3.08-4.53,3.08-2.06,0-4.41-.53-4.6-3.15Z" transform="translate(-131.2 -484.64)"/><path class="cls-2" d="M862.31,693.39c.22,0,.48,0,1.15,0,1.55,0,2.34-.67,2.34-1.75,0-1.52-1.33-2-2.61-2a2.41,2.41,0,0,0-2.76,2.51h-1.71c.13-2.74,2-4,4.52-4,3.08,0,4.38,1.6,4.38,3.29a2.38,2.38,0,0,1-1.79,2.46v0a2.79,2.79,0,0,1,2.33,2.87c0,2.07-1.43,3.84-4.68,3.84-1.14,0-5.07,0-5.07-4.06h1.72c.1,2,1.37,2.61,3.19,2.61s3-.91,3-2.27-1.23-2.15-3-2.15c-.62,0-.84,0-1,0Z" transform="translate(-131.2 -484.64)"/><path class="cls-2" d="M875.14,688.23c3.78,0,5,2.82,5,6.25s-1.19,6.24-5,6.24-5-2.82-5-6.24S871.36,688.23,875.14,688.23Zm0,1.45c-2.94,0-3.15,3.37-3.15,4.8s.21,4.79,3.15,4.79,3.15-3.37,3.15-4.79S878.08,689.68,875.14,689.68Z" transform="translate(-131.2 -484.64)"/><path class="cls-2" d="M886.63,688.23c3.79,0,5,2.82,5,6.25s-1.18,6.24-5,6.24-5-2.82-5-6.24S882.85,688.23,886.63,688.23Zm0,1.45c-2.94,0-3.14,3.37-3.14,4.8s.2,4.79,3.14,4.79,3.15-3.37,3.15-4.79S889.57,689.68,886.63,689.68Z" transform="translate(-131.2 -484.64)"/><path class="cls-2" d="M898.13,688.23c3.78,0,5,2.82,5,6.25s-1.18,6.24-5,6.24-5-2.82-5-6.24S894.34,688.23,898.13,688.23Zm0,1.45c-2.94,0-3.15,3.37-3.15,4.8s.21,4.79,3.15,4.79,3.14-3.37,3.14-4.79S901.07,689.68,898.13,689.68Z" transform="translate(-131.2 -484.64)"/><path class="cls-2" d="M911.72,696.4c0,2.2,2.1,2.77,3.95,2.77s3.32-.74,3.32-2.08c0-1.12-.87-1.58-2.28-1.82l-2.79-.47c-1.46-.24-3.64-.82-3.64-3.21s1.77-3.73,4.91-3.73c2.46,0,5.06.89,5.23,3.85H918.6c-.16-1-.71-2.27-3.65-2.27-1.34,0-2.85.56-2.85,2,0,.76.5,1.36,2,1.62l3,.51c1,.17,3.69.64,3.69,3.15,0,3.13-2.8,4-5.27,4-2.77,0-5.64-1-5.64-4.35Z" transform="translate(-131.2 -484.64)"/><path class="cls-2" d="M927,691.12c3.5,0,5.22,2.22,5.22,4.82s-1.72,4.81-5.22,4.81-5.23-2.22-5.23-4.81S923.47,691.12,927,691.12Zm0,1.45a3.37,3.37,0,1,0,3.4,3.37A3.15,3.15,0,0,0,927,692.57Z" transform="translate(-131.2 -484.64)"/><path class="cls-2" d="M933.91,688.06h1.72v12.38h-1.72Z" transform="translate(-131.2 -484.64)"/><path class="cls-2" d="M945.69,699.29h0a4.32,4.32,0,0,1-3.42,1.46,4.77,4.77,0,1,1,0-9.53,4.2,4.2,0,0,1,3.42,1.47h0v-4.63h1.72v12.38h-1.72Zm-3.23,0a3.32,3.32,0,1,0-3.3-3.32A3.11,3.11,0,0,0,942.46,699.31Z" transform="translate(-131.2 -484.64)"/><path class="cls-2" d="M862.5,711.73c0-2.53,1.44-4.31,4.73-4.31,3.09,0,4.5,1.65,4.5,3.83,0,4.2-5.84,4-7.24,6.79h7.24v1.58h-9.45c.34-5.58,7.63-4.9,7.63-8.39,0-1.73-1.19-2.37-2.58-2.37-2.15,0-3.06,1.19-3.11,2.87Z" transform="translate(-131.2 -484.64)"/><path class="cls-2" d="M878.39,722.89a10.5,10.5,0,0,1,0-15.54h1.29a11.53,11.53,0,0,0,0,15.54Z" transform="translate(-131.2 -484.64)"/><path class="cls-2" d="M885.45,714.26c-2-.33-4.37-.91-4.37-3.4s2.3-3.44,4.37-3.44v-1.53h.82v1.53c3,0,4.3,1.42,4.46,3.35H889c-.16-1.26-1.17-1.84-2.74-1.91v3.87c3.37.55,4.78,1.43,4.78,3.58,0,2.54-2.37,3.59-4.78,3.59v1.53h-.82V719.9c-2.48,0-4.59-1.32-4.61-3.82h1.72c.07.86.53,2.24,2.89,2.38Zm0-5.4c-1.64.09-2.65.71-2.65,1.88s1,1.7,2.65,1.89Zm.82,9.6c2.1,0,3.06-.88,3.06-2s-.82-1.79-3.06-2.08Z" transform="translate(-131.2 -484.64)"/><path class="cls-2" d="M893.93,707.69h7.34v1.58h-6l-.59,3.25a5.17,5.17,0,0,1,2.94-.86c2,0,4.6.9,4.6,4,0,2.56-1.91,4.25-5,4.25-2.78,0-4.59-1.51-4.69-3.47h1.77c.36,1.46,1.24,2,3.06,2,1.53,0,3.06-.59,3.06-2.74,0-1.82-1.34-2.61-3-2.61a3.56,3.56,0,0,0-2.85,1.13l-1.65-.1Z" transform="translate(-131.2 -484.64)"/><path class="cls-2" d="M908.93,707.42c3.78,0,5,2.82,5,6.24s-1.19,6.24-5,6.24-5-2.82-5-6.24S905.15,707.42,908.93,707.42Zm0,1.44c-2.94,0-3.15,3.37-3.15,4.8s.21,4.8,3.15,4.8,3.14-3.38,3.14-4.8S911.87,708.86,908.93,708.86Z" transform="translate(-131.2 -484.64)"/><path class="cls-2" d="M920.42,707.42c3.78,0,5,2.82,5,6.24s-1.19,6.24-5,6.24-5-2.82-5-6.24S916.64,707.42,920.42,707.42Zm0,1.44c-2.94,0-3.15,3.37-3.15,4.8s.21,4.8,3.15,4.8,3.15-3.38,3.15-4.8S923.36,708.86,920.42,708.86Z" transform="translate(-131.2 -484.64)"/><path class="cls-2" d="M931.91,707.42c3.79,0,5,2.82,5,6.24s-1.18,6.24-5,6.24-5-2.82-5-6.24S928.13,707.42,931.91,707.42Zm0,1.44c-2.94,0-3.14,3.37-3.14,4.8s.2,4.8,3.14,4.8,3.15-3.38,3.15-4.8S934.85,708.86,931.91,708.86Z" transform="translate(-131.2 -484.64)"/><path class="cls-2" d="M938.18,722.89a11.53,11.53,0,0,0,0-15.54h1.29a10.5,10.5,0,0,1,0,15.54Z" transform="translate(-131.2 -484.64)"/><path class="cls-2" d="M845.87,728.37h9.86V730h-8v3.56h7.8v1.58h-7.8v4h8.22v1.58h-10Z" transform="translate(-131.2 -484.64)"/><path class="cls-2" d="M868.16,734.87H859.8v5.77H858V728.37h1.82v4.91h8.36v-4.91H870v12.27h-1.82Z" transform="translate(-131.2 -484.64)"/><path class="cls-2" d="M876,730h-4.64v-1.58h11.1V730h-4.64v10.69H876Z" transform="translate(-131.2 -484.64)"/><path class="cls-2" d="M897.56,730.46h0l-3.38,10.18h-2l-4-12.27h2l3.15,10h0l3.29-10h2.16l3.37,10h0l3.13-10h1.89L903,740.64h-2Z" transform="translate(-131.2 -484.64)"/><path class="cls-2" d="M908.06,728.26h1.71v1.89h-1.71Zm0,3.37h1.71v9h-1.71Z" transform="translate(-131.2 -484.64)"/><path class="cls-2" d="M911.87,731.63h1.72V733h0a4,4,0,0,1,3.52-1.67c2.17,0,3.79.93,3.79,3.18v6.14h-1.72v-5.79c0-1.33-.83-2.08-2.67-2.08a2.7,2.7,0,0,0-3,2.68v5.19h-1.72Z" transform="translate(-131.2 -484.64)"/><path class="cls-2" d="M923,731.63h1.72V733h0a4.06,4.06,0,0,1,3.53-1.67c2.16,0,3.78.93,3.78,3.18v6.14h-1.72v-5.79c0-1.33-.82-2.08-2.66-2.08a2.69,2.69,0,0,0-3,2.68v5.19H923Z" transform="translate(-131.2 -484.64)"/><path class="cls-2" d="M935.63,736.65a3.2,3.2,0,0,0,3.32,2.86,3.06,3.06,0,0,0,2.91-1.6h1.82a4.85,4.85,0,0,1-4.64,3c-3.51,0-5.23-2.21-5.23-4.81s1.72-4.82,5.23-4.82c2.37,0,4.88,1.38,4.88,5.11v.22Zm6.47-1.34a3,3,0,0,0-3.15-2.54,3.14,3.14,0,0,0-3.27,2.54Z" transform="translate(-131.2 -484.64)"/><path class="cls-2" d="M945.68,731.63h1.72v1.65h0a3.49,3.49,0,0,1,3.1-2,3.23,3.23,0,0,1,1,.11v1.85a4.92,4.92,0,0,0-1.22-.17,2.69,2.69,0,0,0-2.89,3v4.57h-1.72Z" transform="translate(-131.2 -484.64)"/><path class="cls-2" d="M953.89,737.81c0,.8.65,1.8,2.83,1.8s2.75-.77,2.75-1.41-.32-1-1.7-1.2l-2.84-.38a2.52,2.52,0,0,1-2.44-2.39c0-1.82,1.58-2.91,4.11-2.91,3,0,4.25,1.28,4.4,3h-1.72c0-.91-.91-1.68-2.7-1.68-1.1,0-2.37.3-2.37,1.37,0,.6.28,1,1.5,1.12l2.44.32c2.27.31,3.15,1.12,3.15,2.39,0,2.1-1.78,3.08-4.53,3.08-2.06,0-4.42-.53-4.6-3.14Z" transform="translate(-131.2 -484.64)"/><path class="cls-2" d="M324.09,952.6v0a2.47,2.47,0,0,1-1.93-2.51c0-2,1.64-3.14,4.4-3.14S331,948,331,950.05a2.59,2.59,0,0,1-1.91,2.51v0a2.84,2.84,0,0,1,2.44,3c0,1.52-.89,3.82-4.93,3.82s-4.94-2.3-4.94-3.82A3.15,3.15,0,0,1,324.09,952.6Zm2.46.77c-2.26,0-3.12,1.07-3.12,2.29s.86,2.29,3.12,2.29,3.11-1.07,3.11-2.29S328.8,953.37,326.55,953.37Zm0-5c-1.78,0-2.58.91-2.58,1.79s.8,1.79,2.58,1.79,2.57-.9,2.57-1.79S328.35,948.35,326.56,948.35Z" transform="translate(-131.2 -484.64)"/><path class="cls-2" d="M338,946.91c3.78,0,5,2.82,5,6.24s-1.19,6.24-5,6.24-5-2.82-5-6.24S334.26,946.91,338,946.91Zm0,1.44c-2.94,0-3.15,3.37-3.15,4.8s.21,4.8,3.15,4.8,3.15-3.37,3.15-4.8S341,948.35,338,948.35Z" transform="translate(-131.2 -484.64)"/><path class="cls-2" d="M349.53,946.91c3.78,0,5,2.82,5,6.24s-1.19,6.24-5,6.24-5-2.82-5-6.24S345.75,946.91,349.53,946.91Zm0,1.44c-2.94,0-3.15,3.37-3.15,4.8s.21,4.8,3.15,4.8,3.15-3.37,3.15-4.8S352.47,948.35,349.53,948.35Z" transform="translate(-131.2 -484.64)"/><path class="cls-2" d="M361,946.91c3.79,0,5,2.82,5,6.24s-1.18,6.24-5,6.24-5-2.82-5-6.24S357.24,946.91,361,946.91Zm0,1.44c-2.94,0-3.14,3.37-3.14,4.8s.2,4.8,3.14,4.8,3.15-3.37,3.15-4.8S364,948.35,361,948.35Z" transform="translate(-131.2 -484.64)"/><path class="cls-2" d="M303.37,1195.64a2.19,2.19,0,0,0,2.39,1.65c2,0,3.43-.81,3.63-4.37h0a4.12,4.12,0,0,1-3.51,1.58c-2.08,0-4.61-1-4.61-4.09,0-1.8,1.31-4.16,4.76-4.16,3.65,0,5.11,2.24,5.11,6,0,6.26-3.78,6.48-5.43,6.48-1.45,0-3.7-.6-4-3.09Zm2.7-7.94c-2.08,0-3,1.22-3,2.68s.93,2.68,3,2.68,3-1.22,3-2.68S308.17,1187.7,306.07,1187.7Z" transform="translate(-131.2 -484.64)"/><path class="cls-2" d="M317.79,1186.25c3.78,0,5,2.82,5,6.24s-1.19,6.24-5,6.24-5-2.82-5-6.24S314,1186.25,317.79,1186.25Zm0,1.45c-2.94,0-3.15,3.37-3.15,4.79s.21,4.8,3.15,4.8,3.15-3.37,3.15-4.8S320.73,1187.7,317.79,1187.7Z" transform="translate(-131.2 -484.64)"/><path class="cls-2" d="M329.28,1186.25c3.78,0,5,2.82,5,6.24s-1.19,6.24-5,6.24-5-2.82-5-6.24S325.5,1186.25,329.28,1186.25Zm0,1.45c-2.94,0-3.14,3.37-3.14,4.79s.2,4.8,3.14,4.8,3.15-3.37,3.15-4.8S332.22,1187.7,329.28,1187.7Z" transform="translate(-131.2 -484.64)"/><path class="cls-2" d="M340.77,1186.25c3.79,0,5,2.82,5,6.24s-1.18,6.24-5,6.24-5-2.82-5-6.24S337,1186.25,340.77,1186.25Zm0,1.45c-2.94,0-3.14,3.37-3.14,4.79s.2,4.8,3.14,4.8,3.15-3.37,3.15-4.8S343.71,1187.7,340.77,1187.7Z" transform="translate(-131.2 -484.64)"/><path class="cls-2" d="M354.37,1194.42c0,2.2,2.09,2.77,3.95,2.77s3.32-.74,3.32-2.08c0-1.12-.88-1.59-2.29-1.83l-2.78-.46c-1.46-.24-3.65-.83-3.65-3.22,0-2.23,1.77-3.73,4.92-3.73,2.46,0,5.05.9,5.23,3.85h-1.83c-.15-1-.7-2.26-3.64-2.26-1.34,0-2.86.56-2.86,2,0,.75.5,1.36,2,1.61l3,.52c1,.17,3.7.64,3.7,3.15,0,3.12-2.8,4-5.28,4-2.77,0-5.64-1-5.64-4.35Z" transform="translate(-131.2 -484.64)"/><path class="cls-2" d="M369.62,1189.14c3.51,0,5.23,2.22,5.23,4.81s-1.72,4.82-5.23,4.82-5.22-2.22-5.22-4.82S366.12,1189.14,369.62,1189.14Zm0,1.44A3.37,3.37,0,1,0,373,1194,3.15,3.15,0,0,0,369.62,1190.58Z" transform="translate(-131.2 -484.64)"/><path class="cls-2" d="M376.56,1186.08h1.72v12.38h-1.72Z" transform="translate(-131.2 -484.64)"/><path class="cls-2" d="M388.34,1197.31h0a4.3,4.3,0,0,1-3.42,1.46,4.77,4.77,0,1,1,0-9.53,4.18,4.18,0,0,1,3.42,1.46h0v-4.62h1.72v12.38h-1.72Zm-3.23,0a3.32,3.32,0,1,0-3.3-3.31A3.11,3.11,0,0,0,385.11,1197.32Z" transform="translate(-131.2 -484.64)"/><path class="cls-2" d="M540.4,1186.85h-3.59v-1.34h.41c3.06,0,3.51-1.45,3.58-2.26h1.42v12.28H540.4Z" transform="translate(-131.2 -484.64)"/><path class="cls-2" d="M550.36,1183.32c3.78,0,5,2.82,5,6.24s-1.19,6.25-5,6.25-5-2.82-5-6.25S546.58,1183.32,550.36,1183.32Zm0,1.45c-2.94,0-3.15,3.37-3.15,4.79s.21,4.8,3.15,4.8,3.15-3.37,3.15-4.8S553.3,1184.77,550.36,1184.77Z" transform="translate(-131.2 -484.64)"/><path class="cls-2" d="M561.85,1183.32c3.79,0,5,2.82,5,6.24s-1.18,6.25-5,6.25-5-2.82-5-6.25S558.07,1183.32,561.85,1183.32Zm0,1.45c-2.94,0-3.14,3.37-3.14,4.79s.2,4.8,3.14,4.8,3.15-3.37,3.15-4.8S564.79,1184.77,561.85,1184.77Z" transform="translate(-131.2 -484.64)"/><path class="cls-2" d="M573.35,1183.32c3.78,0,5,2.82,5,6.24s-1.18,6.25-5,6.25-5-2.82-5-6.25S569.56,1183.32,573.35,1183.32Zm0,1.45c-2.94,0-3.15,3.37-3.15,4.79s.21,4.8,3.15,4.8,3.14-3.37,3.14-4.8S576.29,1184.77,573.35,1184.77Z" transform="translate(-131.2 -484.64)"/><path class="cls-2" d="M584.84,1183.32c3.78,0,5,2.82,5,6.24s-1.19,6.25-5,6.25-5-2.82-5-6.25S581.05,1183.32,584.84,1183.32Zm0,1.45c-2.94,0-3.15,3.37-3.15,4.79s.21,4.8,3.15,4.8,3.14-3.37,3.14-4.8S587.78,1184.77,584.84,1184.77Z" transform="translate(-131.2 -484.64)"/><path class="cls-2" d="M598.43,1191.49c0,2.2,2.1,2.77,4,2.77s3.31-.74,3.31-2.08c0-1.12-.87-1.58-2.28-1.83l-2.79-.46c-1.46-.24-3.64-.82-3.64-3.21s1.77-3.74,4.91-3.74c2.46,0,5.06.9,5.23,3.86h-1.82c-.16-1-.71-2.27-3.65-2.27-1.34,0-2.85.56-2.85,2,0,.75.5,1.36,2,1.61l3,.52c1,.17,3.7.64,3.7,3.15,0,3.13-2.81,4-5.28,4-2.77,0-5.64-1-5.64-4.35Z" transform="translate(-131.2 -484.64)"/><path class="cls-2" d="M613.69,1186.21c3.51,0,5.22,2.22,5.22,4.82s-1.71,4.81-5.22,4.81-5.23-2.22-5.23-4.81S610.18,1186.21,613.69,1186.21Zm0,1.45a3.37,3.37,0,1,0,3.4,3.37A3.15,3.15,0,0,0,613.69,1187.66Z" transform="translate(-131.2 -484.64)"/><path class="cls-2" d="M620.62,1183.15h1.72v12.38h-1.72Z" transform="translate(-131.2 -484.64)"/><path class="cls-2" d="M632.4,1194.38h0a4.32,4.32,0,0,1-3.42,1.46,4.77,4.77,0,1,1,0-9.53,4.2,4.2,0,0,1,3.42,1.47h0v-4.63h1.72v12.38H632.4Zm-3.23,0a3.32,3.32,0,1,0,0-6.64,3.32,3.32,0,0,0,0,6.64Z" transform="translate(-131.2 -484.64)"/><path class="cls-2" d="M297.36,968.06c0-2.52,1.44-4.31,4.72-4.31,3.1,0,4.51,1.65,4.51,3.83,0,4.2-5.85,4-7.24,6.79h7.24V976h-9.46c.35-5.59,7.64-4.9,7.64-8.39,0-1.74-1.19-2.38-2.58-2.38-2.15,0-3.06,1.19-3.12,2.87Z" transform="translate(-131.2 -484.64)"/><path class="cls-2" d="M313.25,979.22a10.5,10.5,0,0,1,0-15.54h1.29a11.53,11.53,0,0,0,0,15.54Z" transform="translate(-131.2 -484.64)"/><path class="cls-2" d="M320.3,970.59c-2-.32-4.36-.91-4.36-3.4s2.3-3.44,4.36-3.44v-1.53h.83v1.53c2.95,0,4.3,1.43,4.45,3.35h-1.72c-.15-1.25-1.17-1.84-2.73-1.91v3.87c3.37.55,4.78,1.43,4.78,3.58,0,2.54-2.38,3.59-4.78,3.59v1.53h-.83v-1.53c-2.47,0-4.59-1.32-4.61-3.82h1.72c.07.86.54,2.24,2.89,2.38Zm0-5.4c-1.63.09-2.65.71-2.65,1.88s1,1.7,2.65,1.89Zm.83,9.6c2.1,0,3.06-.88,3.06-2s-.83-1.79-3.06-2.08Z" transform="translate(-131.2 -484.64)"/><path class="cls-2" d="M333.45,973.05h-6.28v-1.58l6.48-7.79h1.51v7.93h2.1v1.44h-2.1V976h-1.71Zm0-7h0l-4.52,5.52h4.56Z" transform="translate(-131.2 -484.64)"/><path class="cls-2" d="M343.79,963.75c3.78,0,5,2.82,5,6.24s-1.18,6.24-5,6.24-5-2.82-5-6.24S340,963.75,343.79,963.75Zm0,1.44c-2.94,0-3.15,3.37-3.15,4.8s.21,4.8,3.15,4.8,3.14-3.37,3.14-4.8S346.73,965.19,343.79,965.19Z" transform="translate(-131.2 -484.64)"/><path class="cls-2" d="M355.28,963.75c3.78,0,5,2.82,5,6.24s-1.19,6.24-5,6.24-5-2.82-5-6.24S351.49,963.75,355.28,963.75Zm0,1.44c-2.94,0-3.15,3.37-3.15,4.8s.21,4.8,3.15,4.8,3.14-3.37,3.14-4.8S358.22,965.19,355.28,965.19Z" transform="translate(-131.2 -484.64)"/><path class="cls-2" d="M366.77,963.75c3.78,0,5,2.82,5,6.24s-1.19,6.24-5,6.24-5-2.82-5-6.24S363,963.75,366.77,963.75Zm0,1.44c-2.94,0-3.15,3.37-3.15,4.8s.21,4.8,3.15,4.8,3.15-3.37,3.15-4.8S369.71,965.19,366.77,965.19Z" transform="translate(-131.2 -484.64)"/><path class="cls-2" d="M378.26,963.75c3.78,0,5,2.82,5,6.24s-1.19,6.24-5,6.24-5-2.82-5-6.24S374.48,963.75,378.26,963.75Zm0,1.44c-2.94,0-3.15,3.37-3.15,4.8s.21,4.8,3.15,4.8,3.15-3.37,3.15-4.8S381.2,965.19,378.26,965.19Z" transform="translate(-131.2 -484.64)"/><path class="cls-2" d="M384.53,979.22a11.56,11.56,0,0,0,0-15.54h1.29a10.52,10.52,0,0,1,0,15.54Z" transform="translate(-131.2 -484.64)"/><path class="cls-2" d="M299.4,1209c0-2.53,1.45-4.32,4.73-4.32,3.09,0,4.5,1.65,4.5,3.84,0,4.19-5.84,4-7.23,6.79h7.23v1.58h-9.45c.34-5.59,7.63-4.9,7.63-8.39,0-1.74-1.19-2.37-2.58-2.37-2.15,0-3.06,1.18-3.11,2.87Z" transform="translate(-131.2 -484.64)"/><path class="cls-2" d="M315.29,1220.17a10.53,10.53,0,0,1,0-15.55h1.29a11.58,11.58,0,0,0,0,15.55Z" transform="translate(-131.2 -484.64)"/><path class="cls-2" d="M322.35,1211.53c-2-.32-4.37-.91-4.37-3.4s2.3-3.44,4.37-3.44v-1.53h.82v1.53c3,0,4.3,1.43,4.46,3.35h-1.72c-.16-1.25-1.17-1.84-2.74-1.9V1210c3.37.55,4.78,1.43,4.78,3.58,0,2.55-2.37,3.59-4.78,3.59v1.54h-.82v-1.54c-2.48,0-4.59-1.32-4.61-3.81h1.72c.07.86.53,2.23,2.89,2.37Zm0-5.39c-1.64.08-2.65.7-2.65,1.87s1,1.7,2.65,1.89Zm.82,9.59c2.1,0,3.06-.88,3.06-2s-.82-1.79-3.06-2.08Z" transform="translate(-131.2 -484.64)"/><path class="cls-2" d="M335.49,1214h-6.28v-1.58l6.49-7.79h1.51v7.93h2.1V1214h-2.1v2.91h-1.72Zm0-7h0l-4.53,5.52h4.56Z" transform="translate(-131.2 -484.64)"/><path class="cls-2" d="M342.32,1205h7.34v1.58h-6.05l-.58,3.25a5.1,5.1,0,0,1,2.94-.86c2,0,4.59.89,4.59,4,0,2.56-1.91,4.24-5,4.24-2.79,0-4.59-1.51-4.7-3.47h1.78c.36,1.46,1.23,2,3.06,2,1.53,0,3.06-.58,3.06-2.73,0-1.83-1.34-2.62-3-2.62a3.54,3.54,0,0,0-2.86,1.14l-1.65-.11Z" transform="translate(-131.2 -484.64)"/><path class="cls-2" d="M357.32,1204.69c3.79,0,5,2.82,5,6.24s-1.18,6.24-5,6.24-5-2.82-5-6.24S353.54,1204.69,357.32,1204.69Zm0,1.45c-2.94,0-3.14,3.37-3.14,4.79s.2,4.8,3.14,4.8,3.15-3.37,3.15-4.8S360.26,1206.14,357.32,1206.14Z" transform="translate(-131.2 -484.64)"/><path class="cls-2" d="M368.81,1204.69c3.79,0,5,2.82,5,6.24s-1.18,6.24-5,6.24-5-2.82-5-6.24S365,1204.69,368.81,1204.69Zm0,1.45c-2.94,0-3.14,3.37-3.14,4.79s.2,4.8,3.14,4.8,3.15-3.37,3.15-4.8S371.75,1206.14,368.81,1206.14Z" transform="translate(-131.2 -484.64)"/><path class="cls-2" d="M380.31,1204.69c3.78,0,5,2.82,5,6.24s-1.19,6.24-5,6.24-5-2.82-5-6.24S376.52,1204.69,380.31,1204.69Zm0,1.45c-2.94,0-3.15,3.37-3.15,4.79s.21,4.8,3.15,4.8,3.14-3.37,3.14-4.8S383.25,1206.14,380.31,1206.14Z" transform="translate(-131.2 -484.64)"/><path class="cls-2" d="M386.57,1220.17a11.55,11.55,0,0,0,0-15.55h1.29a10.51,10.51,0,0,1,0,15.55Z" transform="translate(-131.2 -484.64)"/><path class="cls-2" d="M532.43,1208.7c0-2.92,1.67-5,5.46-5,3.57,0,5.19,1.9,5.19,4.42,0,4.84-6.74,4.65-8.35,7.84h8.35v1.83H532.17c.4-6.45,8.81-5.66,8.81-9.69,0-2-1.37-2.73-3-2.73-2.48,0-3.53,1.36-3.59,3.31Z" transform="translate(-131.2 -484.64)"/><path class="cls-2" d="M550.77,1221.58a12.12,12.12,0,0,1,0-17.94h1.48a13.33,13.33,0,0,0,0,17.94Z" transform="translate(-131.2 -484.64)"/><path class="cls-2" d="M558.9,1211.62c-2.34-.38-5-1.06-5-3.93s2.66-4,5-4V1202h1v1.77c3.42,0,5,1.65,5.14,3.87h-2c-.18-1.45-1.35-2.12-3.16-2.2v4.46c3.89.64,5.52,1.65,5.52,4.13,0,2.93-2.74,4.14-5.52,4.14v1.77h-1v-1.77c-2.86,0-5.3-1.52-5.32-4.4h2c.08,1,.61,2.58,3.33,2.74Zm0-6.23c-1.88.09-3,.81-3,2.16,0,1.19,1.11,2,3,2.18Zm1,11.07c2.42,0,3.54-1,3.54-2.26s-1-2.07-3.54-2.41Z" transform="translate(-131.2 -484.64)"/><path class="cls-2" d="M568.69,1204h8.47v1.82h-7l-.67,3.75a5.94,5.94,0,0,1,3.39-1c2.34,0,5.3,1,5.3,4.6,0,3-2.2,4.9-5.79,4.9-3.22,0-5.3-1.74-5.42-4h2c.42,1.68,1.43,2.34,3.54,2.34,1.76,0,3.53-.68,3.53-3.16,0-2.1-1.55-3-3.47-3a4.1,4.1,0,0,0-3.3,1.31l-1.9-.12Z" transform="translate(-131.2 -484.64)"/><path class="cls-2" d="M586,1203.72c4.37,0,5.74,3.25,5.74,7.2s-1.37,7.2-5.74,7.2-5.73-3.25-5.73-7.2S581.63,1203.72,586,1203.72Zm0,1.67c-3.39,0-3.63,3.88-3.63,5.53s.24,5.54,3.63,5.54,3.63-3.89,3.63-5.54S589.38,1205.39,586,1205.39Z" transform="translate(-131.2 -484.64)"/><path class="cls-2" d="M599.25,1203.72c4.36,0,5.73,3.25,5.73,7.2s-1.37,7.2-5.73,7.2-5.74-3.25-5.74-7.2S594.88,1203.72,599.25,1203.72Zm0,1.67c-3.39,0-3.63,3.88-3.63,5.53s.24,5.54,3.63,5.54,3.63-3.89,3.63-5.54S602.64,1205.39,599.25,1205.39Z" transform="translate(-131.2 -484.64)"/><path class="cls-2" d="M612.5,1203.72c4.37,0,5.74,3.25,5.74,7.2s-1.37,7.2-5.74,7.2-5.73-3.25-5.73-7.2S608.14,1203.72,612.5,1203.72Zm0,1.67c-3.39,0-3.63,3.88-3.63,5.53s.24,5.54,3.63,5.54,3.63-3.89,3.63-5.54S615.9,1205.39,612.5,1205.39Z" transform="translate(-131.2 -484.64)"/><path class="cls-2" d="M625.76,1203.72c4.37,0,5.74,3.25,5.74,7.2s-1.37,7.2-5.74,7.2-5.73-3.25-5.73-7.2S621.4,1203.72,625.76,1203.72Zm0,1.67c-3.39,0-3.63,3.88-3.63,5.53s.24,5.54,3.63,5.54,3.63-3.89,3.63-5.54S629.15,1205.39,625.76,1205.39Z" transform="translate(-131.2 -484.64)"/><path class="cls-2" d="M633,1221.58a13.33,13.33,0,0,0,0-17.94h1.49a12.14,12.14,0,0,1,0,17.94Z" transform="translate(-131.2 -484.64)"/><path class="cls-2" d="M288.07,980.9h9.87v1.58h-8.05V986h7.8v1.58h-7.8v4h8.22v1.58h-10Z" transform="translate(-131.2 -484.64)"/><path class="cls-2" d="M303.51,982.48h-4.64V980.9H310v1.58h-4.65v10.7h-1.82Z" transform="translate(-131.2 -484.64)"/><path class="cls-2" d="M321.5,987.4h-8.35v5.78h-1.83V980.9h1.83v4.92h8.35V980.9h1.83v12.28H321.5Z" transform="translate(-131.2 -484.64)"/><path class="cls-2" d="M344,984.17h1.82l-3.55,9h-1.88l-2.25-6.88h0l-2.25,6.88h-1.82l-3.49-9h1.91l2.49,6.88h0l2.24-6.88h1.89l2.29,6.88h0Z" transform="translate(-131.2 -484.64)"/><path class="cls-2" d="M347.06,980.8h1.72v1.89h-1.72Zm0,3.37h1.72v9h-1.72Z" transform="translate(-131.2 -484.64)"/><path class="cls-2" d="M350.88,984.17h1.72v1.36h0a4,4,0,0,1,3.52-1.67c2.17,0,3.79.93,3.79,3.18v6.14h-1.72v-5.8c0-1.32-.83-2.08-2.67-2.08A2.69,2.69,0,0,0,352.6,988v5.2h-1.72Z" transform="translate(-131.2 -484.64)"/><path class="cls-2" d="M362,984.17h1.72v1.36h0a4,4,0,0,1,3.53-1.67c2.17,0,3.78.93,3.78,3.18v6.14h-1.72v-5.8c0-1.32-.82-2.08-2.66-2.08a2.69,2.69,0,0,0-3,2.68v5.2H362Z" transform="translate(-131.2 -484.64)"/><path class="cls-2" d="M374.63,989.19A3.19,3.19,0,0,0,378,992a3,3,0,0,0,2.91-1.6h1.82a4.86,4.86,0,0,1-4.64,3c-3.51,0-5.23-2.22-5.23-4.82s1.72-4.81,5.23-4.81c2.37,0,4.88,1.37,4.88,5.1v.23Zm6.47-1.34A3,3,0,0,0,378,985.3a3.14,3.14,0,0,0-3.27,2.55Z" transform="translate(-131.2 -484.64)"/><path class="cls-2" d="M384.68,984.17h1.72v1.65h0a3.47,3.47,0,0,1,3.1-2,3.6,3.6,0,0,1,1,.1v1.86a4.92,4.92,0,0,0-1.22-.17,2.68,2.68,0,0,0-2.89,3v4.58h-1.72Z" transform="translate(-131.2 -484.64)"/><path class="cls-2" d="M392.89,990.34c0,.81.65,1.81,2.83,1.81s2.75-.78,2.75-1.41-.32-1-1.7-1.21l-2.84-.38a2.52,2.52,0,0,1-2.44-2.39c0-1.82,1.58-2.9,4.11-2.9,3,0,4.25,1.27,4.4,3h-1.72c0-.91-.91-1.68-2.69-1.68-1.11,0-2.38.31-2.38,1.37,0,.61.28.95,1.5,1.12l2.44.33c2.27.31,3.15,1.12,3.15,2.39,0,2.1-1.77,3.08-4.53,3.08-2.06,0-4.41-.54-4.6-3.15Z" transform="translate(-131.2 -484.64)"/><path class="cls-2" d="M290.11,1223.77H300v1.58h-8.05v3.56h7.81v1.58h-7.81v4h8.22V1236h-10Z" transform="translate(-131.2 -484.64)"/><path class="cls-2" d="M305.56,1225.35h-4.64v-1.58H312v1.58h-4.64V1236h-1.82Z" transform="translate(-131.2 -484.64)"/><path class="cls-2" d="M323.55,1230.27h-8.36V1236h-1.82v-12.27h1.82v4.91h8.36v-4.91h1.82V1236h-1.82Z" transform="translate(-131.2 -484.64)"/><path class="cls-2" d="M346.07,1227h1.82l-3.56,9h-1.87l-2.26-6.87h0l-2.25,6.87h-1.83l-3.49-9h1.91l2.5,6.88h0l2.24-6.88h1.89l2.28,6.88h0Z" transform="translate(-131.2 -484.64)"/><path class="cls-2" d="M349.1,1223.66h1.72v1.89H349.1Zm0,3.37h1.72v9H349.1Z" transform="translate(-131.2 -484.64)"/><path class="cls-2" d="M352.92,1227h1.72v1.36h0a4,4,0,0,1,3.52-1.67c2.17,0,3.78.93,3.78,3.19V1236h-1.72v-5.79c0-1.32-.82-2.08-2.66-2.08a2.69,2.69,0,0,0-3,2.68V1236h-1.72Z" transform="translate(-131.2 -484.64)"/><path class="cls-2" d="M364.09,1227h1.72v1.36h0a4.06,4.06,0,0,1,3.53-1.67c2.16,0,3.78.93,3.78,3.19V1236h-1.72v-5.79c0-1.32-.83-2.08-2.67-2.08a2.69,2.69,0,0,0-2.95,2.68V1236h-1.72Z" transform="translate(-131.2 -484.64)"/><path class="cls-2" d="M376.68,1232.05a3.2,3.2,0,0,0,3.32,2.86,3,3,0,0,0,2.9-1.6h1.83a4.87,4.87,0,0,1-4.65,3c-3.5,0-5.22-2.21-5.22-4.81s1.72-4.82,5.22-4.82c2.38,0,4.89,1.38,4.89,5.11v.22Zm6.46-1.34a3,3,0,0,0-3.14-2.54,3.14,3.14,0,0,0-3.27,2.54Z" transform="translate(-131.2 -484.64)"/><path class="cls-2" d="M386.73,1227h1.72v1.65h0a3.49,3.49,0,0,1,3.09-2,3.19,3.19,0,0,1,1,.11v1.85a4.86,4.86,0,0,0-1.22-.17,2.68,2.68,0,0,0-2.88,3V1236h-1.72Z" transform="translate(-131.2 -484.64)"/><path class="cls-2" d="M394.93,1233.21c0,.8.66,1.8,2.84,1.8s2.75-.77,2.75-1.41-.33-1-1.7-1.2L396,1232a2.52,2.52,0,0,1-2.44-2.39c0-1.82,1.58-2.91,4.11-2.91,3,0,4.25,1.28,4.4,3h-1.72c-.05-.91-.91-1.68-2.7-1.68-1.1,0-2.37.31-2.37,1.37,0,.6.27,1,1.49,1.12l2.45.33c2.27.31,3.14,1.11,3.14,2.39,0,2.09-1.77,3.07-4.52,3.07-2.06,0-4.42-.53-4.61-3.14Z" transform="translate(-131.2 -484.64)"/><path class="cls-2" d="M530.27,1226.54h9.87v1.58h-8v3.56h7.81v1.58h-7.81v4h8.22v1.58h-10Z" transform="translate(-131.2 -484.64)"/><path class="cls-2" d="M545.72,1228.12h-4.65v-1.58h11.11v1.58h-4.64v10.7h-1.82Z" transform="translate(-131.2 -484.64)"/><path class="cls-2" d="M563.71,1233h-8.36v5.78h-1.82v-12.28h1.82v4.92h8.36v-4.92h1.82v12.28h-1.82Z" transform="translate(-131.2 -484.64)"/><path class="cls-2" d="M586.23,1229.81h1.82l-3.56,9h-1.87l-2.26-6.88h0l-2.25,6.88h-1.83l-3.49-9h1.91l2.49,6.88h0l2.23-6.88h1.9l2.28,6.88h0Z" transform="translate(-131.2 -484.64)"/><path class="cls-2" d="M589.26,1226.44H591v1.89h-1.72Zm0,3.37H591v9h-1.72Z" transform="translate(-131.2 -484.64)"/><path class="cls-2" d="M593.08,1229.81h1.72v1.36h0a4,4,0,0,1,3.53-1.67c2.17,0,3.78.93,3.78,3.18v6.14h-1.72V1233c0-1.32-.82-2.08-2.66-2.08a2.69,2.69,0,0,0-3,2.69v5.19h-1.72Z" transform="translate(-131.2 -484.64)"/><path class="cls-2" d="M604.25,1229.81H606v1.36h0a4,4,0,0,1,3.52-1.67c2.17,0,3.79.93,3.79,3.18v6.14h-1.72V1233c0-1.32-.83-2.08-2.67-2.08a2.7,2.7,0,0,0-3,2.69v5.19h-1.71Z" transform="translate(-131.2 -484.64)"/><path class="cls-2" d="M616.84,1234.83a3.18,3.18,0,0,0,3.32,2.85,3,3,0,0,0,2.9-1.6h1.82a4.86,4.86,0,0,1-4.64,3.05c-3.51,0-5.23-2.22-5.23-4.82s1.72-4.81,5.23-4.81c2.37,0,4.88,1.37,4.88,5.11v.22Zm6.46-1.34a3,3,0,0,0-3.14-2.55,3.13,3.13,0,0,0-3.27,2.55Z" transform="translate(-131.2 -484.64)"/><path class="cls-2" d="M626.88,1229.81h1.72v1.65h0a3.47,3.47,0,0,1,3.09-2,3.56,3.56,0,0,1,1,.1v1.86a4.86,4.86,0,0,0-1.22-.17,2.68,2.68,0,0,0-2.89,3v4.58h-1.72Z" transform="translate(-131.2 -484.64)"/><path class="cls-2" d="M635.09,1236c0,.81.65,1.81,2.84,1.81s2.75-.78,2.75-1.41-.33-1-1.7-1.21l-2.84-.38a2.52,2.52,0,0,1-2.44-2.39c0-1.82,1.58-2.9,4.11-2.9,3,0,4.24,1.27,4.4,3h-1.72c0-.92-.91-1.69-2.7-1.69-1.1,0-2.37.31-2.37,1.38,0,.6.27.94,1.49,1.11l2.44.33c2.27.31,3.15,1.12,3.15,2.39,0,2.1-1.77,3.08-4.52,3.08-2.06,0-4.42-.54-4.61-3.15Z" transform="translate(-131.2 -484.64)"/><path class="cls-2" d="M447.59,981.94h10.08v1.54h-8.22V987h8v1.54h-8v3.88h8.4v1.54H447.59Z" transform="translate(-131.2 -484.64)"/><path class="cls-2" d="M463.36,983.48h-4.74v-1.54H470v1.54h-4.74v10.44h-1.86Z" transform="translate(-131.2 -484.64)"/><path class="cls-2" d="M481.73,988.28h-8.54v5.64h-1.86v-12h1.86v4.8h8.54v-4.8h1.86v12h-1.86Z" transform="translate(-131.2 -484.64)"/><path class="cls-2" d="M504.71,985.13h1.86l-3.64,8.79H501l-2.3-6.71h0l-2.3,6.71h-1.86L491,985.13h1.95l2.55,6.71h0l2.28-6.71h1.93l2.34,6.71h0Z" transform="translate(-131.2 -484.64)"/><path class="cls-2" d="M507.79,981.84h1.76v1.85h-1.76Zm0,3.29h1.76v8.79h-1.76Z" transform="translate(-131.2 -484.64)"/><path class="cls-2" d="M511.69,985.13h1.76v1.32h0a4.21,4.21,0,0,1,3.6-1.63c2.21,0,3.87.91,3.87,3.11v6h-1.76v-5.66c0-1.29-.84-2-2.72-2-1.6,0-3,.89-3,2.62v5.07h-1.76Z" transform="translate(-131.2 -484.64)"/><path class="cls-2" d="M523.08,985.13h1.76v1.32h0a4.22,4.22,0,0,1,3.6-1.63c2.22,0,3.87.91,3.87,3.11v6h-1.76v-5.66c0-1.29-.84-2-2.72-2-1.6,0-3,.89-3,2.62v5.07h-1.76Z" transform="translate(-131.2 -484.64)"/><path class="cls-2" d="M535.93,990a3.22,3.22,0,0,0,3.39,2.78,3.14,3.14,0,0,0,3-1.56h1.86a5,5,0,0,1-4.74,3c-3.58,0-5.34-2.16-5.34-4.7s1.76-4.7,5.34-4.7a4.65,4.65,0,0,1,5,5V990Zm6.61-1.31a3,3,0,0,0-3.22-2.49,3.17,3.17,0,0,0-3.33,2.49Z" transform="translate(-131.2 -484.64)"/><path class="cls-2" d="M546.19,985.13h1.75v1.61h0a3.57,3.57,0,0,1,3.16-1.92,3.33,3.33,0,0,1,1,.11v1.81a5.1,5.1,0,0,0-1.25-.17,2.69,2.69,0,0,0-2.95,2.89v4.46h-1.75Z" transform="translate(-131.2 -484.64)"/><path class="cls-2" d="M554.56,991.15c0,.79.67,1.76,2.9,1.76s2.81-.75,2.81-1.37-.33-1-1.74-1.18l-2.9-.37a2.51,2.51,0,0,1-2.49-2.33c0-1.78,1.61-2.84,4.2-2.84,3,0,4.33,1.25,4.49,3h-1.75c-.06-.89-.93-1.65-2.76-1.65-1.13,0-2.43.31-2.43,1.35,0,.58.29.92,1.53,1.09l2.5.32c2.32.3,3.21,1.09,3.21,2.33,0,2-1.81,3-4.62,3-2.11,0-4.51-.52-4.71-3.07Z" transform="translate(-131.2 -484.64)"/><path class="cls-2" d="M609.13,977.62h10.09v1.55H611v3.47h8v1.54h-8v3.88h8.39v1.54H609.13Z" transform="translate(-131.2 -484.64)"/><path class="cls-2" d="M624.9,979.17h-4.74v-1.55h11.35v1.55h-4.75V989.6H624.9Z" transform="translate(-131.2 -484.64)"/><path class="cls-2" d="M643.27,984h-8.54v5.63h-1.86v-12h1.86v4.8h8.54v-4.8h1.86v12h-1.86Z" transform="translate(-131.2 -484.64)"/><path class="cls-2" d="M666.25,980.81h1.87l-3.64,8.79h-1.92l-2.3-6.71h0l-2.3,6.71h-1.87l-3.56-8.79h2l2.55,6.71h0l2.28-6.71h1.94l2.33,6.71h0Z" transform="translate(-131.2 -484.64)"/><path class="cls-2" d="M669.34,977.52h1.75v1.85h-1.75Zm0,3.29h1.75v8.79h-1.75Z" transform="translate(-131.2 -484.64)"/><path class="cls-2" d="M673.23,980.81H675v1.33h0a4.2,4.2,0,0,1,3.61-1.63c2.21,0,3.86.91,3.86,3.1v6h-1.76V984c0-1.29-.84-2-2.72-2-1.6,0-3,.89-3,2.62v5.06h-1.76Z" transform="translate(-131.2 -484.64)"/><path class="cls-2" d="M684.63,980.81h1.75v1.33h0a4.17,4.17,0,0,1,3.6-1.63c2.21,0,3.86.91,3.86,3.1v6h-1.75V984c0-1.29-.85-2-2.73-2-1.59,0-3,.89-3,2.62v5.06h-1.75Z" transform="translate(-131.2 -484.64)"/><path class="cls-2" d="M697.48,985.71a3.22,3.22,0,0,0,3.39,2.79,3.15,3.15,0,0,0,3-1.57h1.86a5,5,0,0,1-4.74,3c-3.59,0-5.34-2.17-5.34-4.7s1.75-4.7,5.34-4.7c2.42,0,5,1.34,5,5v.22Zm6.6-1.31a3,3,0,0,0-3.21-2.48,3.16,3.16,0,0,0-3.34,2.48Z" transform="translate(-131.2 -484.64)"/><path class="cls-2" d="M707.73,980.81h1.76v1.61h0a3.57,3.57,0,0,1,3.16-1.91,3.71,3.71,0,0,1,1,.1v1.81a5,5,0,0,0-1.24-.17,2.69,2.69,0,0,0-3,2.89v4.46h-1.76Z" transform="translate(-131.2 -484.64)"/><path class="cls-2" d="M716.11,986.84c0,.78.66,1.76,2.89,1.76s2.81-.76,2.81-1.38-.33-1-1.74-1.17l-2.89-.37a2.54,2.54,0,0,1-2.5-2.34c0-1.77,1.62-2.83,4.2-2.83,3,0,4.34,1.24,4.5,3h-1.76c0-.89-.93-1.64-2.76-1.64-1.12,0-2.42.3-2.42,1.34,0,.59.28.92,1.53,1.09l2.49.32c2.32.3,3.22,1.09,3.22,2.33,0,2.05-1.81,3-4.62,3-2.11,0-4.52-.53-4.71-3.07Z" transform="translate(-131.2 -484.64)"/><path class="cls-2" d="M767,983.31h10.08v1.55h-8.22v3.47h8v1.54h-8v3.88h8.4v1.54H767Z" transform="translate(-131.2 -484.64)"/><path class="cls-2" d="M782.8,984.86h-4.74v-1.55H789.4v1.55h-4.74v10.43H782.8Z" transform="translate(-131.2 -484.64)"/><path class="cls-2" d="M801.17,989.65h-8.54v5.64h-1.86v-12h1.86v4.8h8.54v-4.8H803v12h-1.86Z" transform="translate(-131.2 -484.64)"/><path class="cls-2" d="M824.15,986.5H826l-3.64,8.79h-1.91l-2.3-6.71h0l-2.3,6.71H814l-3.57-8.79h2l2.55,6.71h0l2.28-6.71h1.93l2.34,6.71h0Z" transform="translate(-131.2 -484.64)"/><path class="cls-2" d="M827.23,983.21H829v1.85h-1.76Zm0,3.29H829v8.79h-1.76Z" transform="translate(-131.2 -484.64)"/><path class="cls-2" d="M831.13,986.5h1.76v1.33h0a4.18,4.18,0,0,1,3.6-1.63c2.22,0,3.87.91,3.87,3.1v6h-1.76v-5.65c0-1.29-.84-2-2.72-2-1.6,0-3,.89-3,2.62v5.06h-1.76Z" transform="translate(-131.2 -484.64)"/><path class="cls-2" d="M842.52,986.5h1.76v1.33h0a4.2,4.2,0,0,1,3.61-1.63c2.21,0,3.86.91,3.86,3.1v6H850v-5.65c0-1.29-.84-2-2.72-2-1.6,0-3,.89-3,2.62v5.06h-1.76Z" transform="translate(-131.2 -484.64)"/><path class="cls-2" d="M855.37,991.4a3.23,3.23,0,0,0,3.4,2.79,3.12,3.12,0,0,0,3-1.57h1.87a5,5,0,0,1-4.75,3c-3.58,0-5.34-2.17-5.34-4.7s1.76-4.7,5.34-4.7c2.43,0,5,1.34,5,5v.22Zm6.61-1.31a3,3,0,0,0-3.21-2.48,3.16,3.16,0,0,0-3.34,2.48Z" transform="translate(-131.2 -484.64)"/><path class="cls-2" d="M865.63,986.5h1.75v1.61h0a3.56,3.56,0,0,1,3.16-1.91,3.35,3.35,0,0,1,1,.1v1.81a5.1,5.1,0,0,0-1.25-.17,2.69,2.69,0,0,0-3,2.89v4.46h-1.75Z" transform="translate(-131.2 -484.64)"/><path class="cls-2" d="M874,992.52c0,.79.67,1.77,2.9,1.77s2.81-.76,2.81-1.38-.33-1-1.74-1.17l-2.9-.37a2.54,2.54,0,0,1-2.49-2.34c0-1.77,1.61-2.83,4.2-2.83,3,0,4.34,1.24,4.49,2.95h-1.75c-.06-.89-.93-1.64-2.76-1.64-1.13,0-2.42.3-2.42,1.34,0,.59.28.92,1.52,1.09l2.5.32c2.32.3,3.21,1.09,3.21,2.33,0,2-1.81,3-4.62,3-2.11,0-4.51-.53-4.7-3.08Z" transform="translate(-131.2 -484.64)"/><path class="cls-2" d="M925.17,978.85h10.08v1.55H927v3.47h8v1.54h-8v3.88h8.4v1.54H925.17Z" transform="translate(-131.2 -484.64)"/><path class="cls-2" d="M940.94,980.4h-4.75v-1.55h11.35v1.55H942.8v10.43h-1.86Z" transform="translate(-131.2 -484.64)"/><path class="cls-2" d="M959.3,985.2h-8.53v5.63h-1.86v-12h1.86v4.8h8.53v-4.8h1.87v12H959.3Z" transform="translate(-131.2 -484.64)"/><path class="cls-2" d="M982.29,982h1.86l-3.64,8.79H978.6l-2.3-6.71h0l-2.3,6.71H972.1L968.53,982h2l2.55,6.71h0l2.29-6.71h1.93l2.34,6.71h0Z" transform="translate(-131.2 -484.64)"/><path class="cls-2" d="M985.37,978.75h1.76v1.85h-1.76Zm0,3.29h1.76v8.79h-1.76Z" transform="translate(-131.2 -484.64)"/><path class="cls-2" d="M989.27,982H991v1.33h0a4.17,4.17,0,0,1,3.6-1.63c2.21,0,3.86.91,3.86,3.1v6h-1.75v-5.65c0-1.29-.85-2-2.73-2-1.59,0-3,.89-3,2.62v5.06h-1.75Z" transform="translate(-131.2 -484.64)"/><path class="cls-2" d="M1000.66,982h1.76v1.33h0a4.19,4.19,0,0,1,3.6-1.63c2.22,0,3.87.91,3.87,3.1v6h-1.76v-5.65c0-1.29-.84-2-2.72-2-1.6,0-3,.89-3,2.62v5.06h-1.76Z" transform="translate(-131.2 -484.64)"/><path class="cls-2" d="M1013.51,986.94a3.22,3.22,0,0,0,3.39,2.79,3.16,3.16,0,0,0,3-1.56h1.86a5,5,0,0,1-4.74,3c-3.58,0-5.34-2.17-5.34-4.7s1.76-4.7,5.34-4.7c2.42,0,5,1.34,5,5v.22Zm6.61-1.31a3,3,0,0,0-3.22-2.48,3.16,3.16,0,0,0-3.33,2.48Z" transform="translate(-131.2 -484.64)"/><path class="cls-2" d="M1023.76,982h1.76v1.61h0a3.56,3.56,0,0,1,3.16-1.91,3.71,3.71,0,0,1,1,.1v1.81a5.1,5.1,0,0,0-1.25-.17,2.69,2.69,0,0,0-3,2.89v4.46h-1.76Z" transform="translate(-131.2 -484.64)"/><path class="cls-2" d="M1032.14,988.07c0,.78.67,1.76,2.9,1.76s2.81-.76,2.81-1.38-.34-1-1.74-1.17l-2.9-.37a2.53,2.53,0,0,1-2.49-2.33c0-1.78,1.61-2.84,4.19-2.84,3,0,4.34,1.24,4.5,3h-1.76c-.05-.89-.93-1.64-2.75-1.64-1.13,0-2.43.3-2.43,1.34,0,.59.28.92,1.53,1.09l2.5.32c2.31.3,3.21,1.09,3.21,2.33,0,2-1.81,3-4.62,3-2.11,0-4.51-.52-4.71-3.07Z" transform="translate(-131.2 -484.64)"/><path class="cls-2" d="M459.2,946.35h9.47v1.48A23.37,23.37,0,0,0,463.4,958h-1.95a24.69,24.69,0,0,1,5.48-10H459.2Z" transform="translate(-131.2 -484.64)"/><path class="cls-2" d="M475.18,946.08c3.87,0,5.08,2.76,5.08,6.09s-1.21,6.09-5.08,6.09-5.07-2.75-5.07-6.09S471.32,946.08,475.18,946.08Zm0,1.41c-3,0-3.21,3.29-3.21,4.68s.21,4.68,3.21,4.68,3.22-3.28,3.22-4.68S478.19,947.49,475.18,947.49Z" transform="translate(-131.2 -484.64)"/><path class="cls-2" d="M486.91,946.08c3.87,0,5.08,2.76,5.08,6.09s-1.21,6.09-5.08,6.09-5.08-2.75-5.08-6.09S483.05,946.08,486.91,946.08Zm0,1.41c-3,0-3.21,3.29-3.21,4.68s.21,4.68,3.21,4.68,3.22-3.28,3.22-4.68S489.91,947.49,486.91,947.49Z" transform="translate(-131.2 -484.64)"/><path class="cls-2" d="M498.64,946.08c3.86,0,5.08,2.76,5.08,6.09s-1.22,6.09-5.08,6.09-5.08-2.75-5.08-6.09S494.77,946.08,498.64,946.08Zm0,1.41c-3,0-3.22,3.29-3.22,4.68s.21,4.68,3.22,4.68,3.21-3.28,3.21-4.68S501.64,947.49,498.64,947.49Z" transform="translate(-131.2 -484.64)"/><path class="cls-2" d="M512.51,954.05c0,2.15,2.14,2.7,4,2.7s3.39-.72,3.39-2c0-1.09-.9-1.54-2.34-1.77l-2.85-.46c-1.49-.23-3.72-.8-3.72-3.14,0-2.18,1.81-3.64,5-3.64,2.52,0,5.17.88,5.34,3.76h-1.86c-.16-.94-.72-2.21-3.72-2.21-1.37,0-2.92.55-2.92,2,0,.74.51,1.33,2.06,1.58l3.07.5c1,.17,3.78.62,3.78,3.07,0,3.06-2.86,3.93-5.39,3.93-2.83,0-5.77-.94-5.77-4.25Z" transform="translate(-131.2 -484.64)"/><path class="cls-2" d="M528.08,948.9c3.58,0,5.34,2.17,5.34,4.7s-1.76,4.7-5.34,4.7-5.34-2.17-5.34-4.7S524.5,948.9,528.08,948.9Zm0,1.41a3.3,3.3,0,1,0,3.48,3.29A3.15,3.15,0,0,0,528.08,950.31Z" transform="translate(-131.2 -484.64)"/><path class="cls-2" d="M535.15,945.92h1.76V958h-1.76Z" transform="translate(-131.2 -484.64)"/><path class="cls-2" d="M547.18,956.87h0a4.51,4.51,0,0,1-3.5,1.43c-2.77,0-5-1.7-5-4.65s2.23-4.65,5-4.65a4.38,4.38,0,0,1,3.5,1.43h0v-4.51h1.76V958h-1.76Zm-3.3,0a3.24,3.24,0,1,0-3.37-3.24A3.11,3.11,0,0,0,543.88,956.89Z" transform="translate(-131.2 -484.64)"/><path class="cls-2" d="M457.07,966.52c0-2.47,1.48-4.21,4.83-4.21,3.16,0,4.6,1.61,4.6,3.74,0,4.09-6,3.92-7.39,6.63h7.39v1.54h-9.66c.35-5.45,7.8-4.78,7.8-8.19,0-1.69-1.21-2.31-2.63-2.31-2.2,0-3.13,1.15-3.18,2.8Z" transform="translate(-131.2 -484.64)"/><path class="cls-2" d="M473.29,977.41a10,10,0,0,1,0-15.17h1.32a10.91,10.91,0,0,0,0,15.17Z" transform="translate(-131.2 -484.64)"/><path class="cls-2" d="M480.49,969c-2.07-.31-4.46-.88-4.46-3.32s2.35-3.35,4.46-3.35v-1.5h.85v1.5c3,0,4.39,1.39,4.55,3.27h-1.76c-.16-1.23-1.19-1.8-2.79-1.86v3.77c3.44.54,4.88,1.39,4.88,3.49,0,2.48-2.42,3.51-4.88,3.51V976h-.85v-1.49c-2.53,0-4.69-1.29-4.7-3.73h1.75c.07.84.55,2.18,2.95,2.32Zm0-5.26c-1.67.08-2.7.68-2.7,1.82s1,1.67,2.7,1.85Zm.85,9.36c2.14,0,3.12-.86,3.12-1.91s-.84-1.75-3.12-2Z" transform="translate(-131.2 -484.64)"/><path class="cls-2" d="M491.36,967.34c.23,0,.49,0,1.18,0,1.58,0,2.39-.66,2.39-1.71,0-1.48-1.36-1.93-2.67-1.93-1.87,0-2.73.89-2.81,2.45h-1.76c.14-2.67,2-3.86,4.62-3.86,3.14,0,4.48,1.56,4.48,3.2a2.32,2.32,0,0,1-1.83,2.4v0a2.75,2.75,0,0,1,2.37,2.81c0,2-1.46,3.74-4.78,3.74-1.16,0-5.18,0-5.18-4h1.76c.1,2,1.4,2.55,3.27,2.55s3.07-.89,3.07-2.22-1.26-2.09-3.07-2.09c-.64,0-.86,0-1,0Z" transform="translate(-131.2 -484.64)"/><path class="cls-2" d="M500.87,962.58h7.51v1.54h-6.19l-.6,3.17a5.44,5.44,0,0,1,3-.84c2.07,0,4.69.87,4.69,3.89,0,2.5-2,4.15-5.13,4.15-2.85,0-4.69-1.48-4.8-3.39h1.81c.37,1.43,1.27,2,3.13,2,1.56,0,3.13-.57,3.13-2.67,0-1.78-1.37-2.55-3.08-2.55a3.73,3.73,0,0,0-2.91,1.11l-1.69-.1Z" transform="translate(-131.2 -484.64)"/><path class="cls-2" d="M516.19,962.31c3.86,0,5.07,2.75,5.07,6.09s-1.21,6.09-5.07,6.09-5.08-2.75-5.08-6.09S512.32,962.31,516.19,962.31Zm0,1.41c-3,0-3.22,3.29-3.22,4.68s.21,4.68,3.22,4.68,3.21-3.29,3.21-4.68S519.19,963.72,516.19,963.72Z" transform="translate(-131.2 -484.64)"/><path class="cls-2" d="M527.91,962.31c3.87,0,5.08,2.75,5.08,6.09s-1.21,6.09-5.08,6.09-5.07-2.75-5.07-6.09S524.05,962.31,527.91,962.31Zm0,1.41c-3,0-3.21,3.29-3.21,4.68s.21,4.68,3.21,4.68,3.22-3.29,3.22-4.68S530.92,963.72,527.91,963.72Z" transform="translate(-131.2 -484.64)"/><path class="cls-2" d="M539.64,962.31c3.87,0,5.08,2.75,5.08,6.09s-1.21,6.09-5.08,6.09-5.08-2.75-5.08-6.09S535.78,962.31,539.64,962.31Zm0,1.41c-3,0-3.21,3.29-3.21,4.68s.21,4.68,3.21,4.68,3.22-3.29,3.22-4.68S542.64,963.72,539.64,963.72Z" transform="translate(-131.2 -484.64)"/><path class="cls-2" d="M546,977.41a10.91,10.91,0,0,0,0-15.17h1.32a10,10,0,0,1,0,15.17Z" transform="translate(-131.2 -484.64)"/><path class="cls-2" d="M629.39,949.72a2.2,2.2,0,0,0-2.39-1.65c-2,0-3.43.81-3.63,4.37h0a4.1,4.1,0,0,1,3.51-1.58c2.08,0,4.61,1,4.61,4.09,0,1.81-1.31,4.16-4.77,4.16-3.64,0-5.1-2.23-5.1-6,0-6.26,3.78-6.48,5.43-6.48,1.45,0,3.7.6,4,3.09Zm-2.7,2.58c-2.1,0-3,1.22-3,2.68s.93,2.69,3,2.69,3-1.22,3-2.69S628.77,952.3,626.69,952.3Z" transform="translate(-131.2 -484.64)"/><path class="cls-2" d="M638,946.63c3.79,0,5,2.82,5,6.24s-1.18,6.24-5,6.24-5-2.82-5-6.24S634.17,946.63,638,946.63Zm0,1.44c-2.94,0-3.14,3.37-3.14,4.8s.2,4.8,3.14,4.8,3.15-3.37,3.15-4.8S640.89,948.07,638,948.07Z" transform="translate(-131.2 -484.64)"/><path class="cls-2" d="M649.45,946.63c3.78,0,5,2.82,5,6.24s-1.18,6.24-5,6.24-5-2.82-5-6.24S645.66,946.63,649.45,946.63Zm0,1.44c-2.94,0-3.15,3.37-3.15,4.8s.21,4.8,3.15,4.8,3.14-3.37,3.14-4.8S652.39,948.07,649.45,948.07Z" transform="translate(-131.2 -484.64)"/><path class="cls-2" d="M660.94,946.63c3.78,0,5,2.82,5,6.24s-1.19,6.24-5,6.24-5-2.82-5-6.24S657.15,946.63,660.94,946.63Zm0,1.44c-2.94,0-3.15,3.37-3.15,4.8s.21,4.8,3.15,4.8,3.14-3.37,3.14-4.8S663.88,948.07,660.94,948.07Z" transform="translate(-131.2 -484.64)"/><path class="cls-2" d="M674.53,954.8c0,2.2,2.1,2.76,4,2.76s3.31-.74,3.31-2.08c0-1.11-.87-1.58-2.28-1.82l-2.79-.46c-1.46-.24-3.64-.83-3.64-3.22,0-2.23,1.77-3.73,4.91-3.73,2.46,0,5.06.89,5.23,3.85h-1.82c-.16-1-.71-2.27-3.65-2.27-1.34,0-2.85.57-2.85,2,0,.76.5,1.36,2,1.62l3,.52c1,.17,3.7.63,3.7,3.14,0,3.13-2.81,4-5.28,4-2.77,0-5.64-1-5.64-4.35Z" transform="translate(-131.2 -484.64)"/><path class="cls-2" d="M689.79,949.52c3.51,0,5.23,2.21,5.23,4.81s-1.72,4.82-5.23,4.82-5.23-2.22-5.23-4.82S686.28,949.52,689.79,949.52Zm0,1.44a3.37,3.37,0,1,0,3.4,3.37A3.16,3.16,0,0,0,689.79,951Z" transform="translate(-131.2 -484.64)"/><path class="cls-2" d="M696.72,946.46h1.72v12.38h-1.72Z" transform="translate(-131.2 -484.64)"/><path class="cls-2" d="M708.5,957.68h0a4.29,4.29,0,0,1-3.42,1.47,4.77,4.77,0,1,1,0-9.53,4.2,4.2,0,0,1,3.42,1.46h0v-4.62h1.72v12.38H708.5Zm-3.23,0a3.32,3.32,0,1,0-3.3-3.32A3.12,3.12,0,0,0,705.27,957.7Z" transform="translate(-131.2 -484.64)"/><path class="cls-2" d="M619.57,964.69c0-2.53,1.44-4.32,4.72-4.32,3.1,0,4.51,1.65,4.51,3.84,0,4.19-5.85,4-7.24,6.79h7.24v1.58h-9.46c.35-5.59,7.64-4.9,7.64-8.39,0-1.74-1.19-2.37-2.58-2.37-2.15,0-3.06,1.18-3.11,2.87Z" transform="translate(-131.2 -484.64)"/><path class="cls-2" d="M635.46,975.85a10.51,10.51,0,0,1,0-15.55h1.29a11.55,11.55,0,0,0,0,15.55Z" transform="translate(-131.2 -484.64)"/><path class="cls-2" d="M642.51,967.22c-2-.33-4.36-.91-4.36-3.41s2.3-3.44,4.36-3.44v-1.53h.83v1.53c3,0,4.3,1.43,4.45,3.36h-1.72c-.15-1.26-1.17-1.84-2.73-1.91v3.87c3.37.55,4.78,1.42,4.78,3.57,0,2.55-2.37,3.6-4.78,3.6v1.53h-.83v-1.53c-2.47,0-4.59-1.33-4.6-3.82h1.72c.06.86.53,2.24,2.88,2.37Zm0-5.4c-1.63.08-2.64.7-2.64,1.87s1,1.7,2.64,1.89Zm.83,9.59c2.1,0,3.06-.87,3.06-2s-.83-1.79-3.06-2.08Z" transform="translate(-131.2 -484.64)"/><path class="cls-2" d="M653.16,965.53c.23,0,.48,0,1.15,0,1.55,0,2.34-.67,2.34-1.76,0-1.51-1.32-2-2.61-2a2.4,2.4,0,0,0-2.75,2.51h-1.72c.14-2.74,2-4,4.52-4,3.08,0,4.39,1.6,4.39,3.29a2.38,2.38,0,0,1-1.79,2.46v0A2.78,2.78,0,0,1,659,969c0,2.07-1.43,3.84-4.68,3.84-1.13,0-5.07,0-5.07-4.06H651c.1,2,1.37,2.61,3.2,2.61s3-.91,3-2.27-1.24-2.15-3-2.15c-.62,0-.85,0-1,0Z" transform="translate(-131.2 -484.64)"/><path class="cls-2" d="M666,960.37c3.78,0,5,2.82,5,6.24s-1.18,6.25-5,6.25-5-2.82-5-6.25S662.21,960.37,666,960.37Zm0,1.45c-2.94,0-3.15,3.37-3.15,4.79s.21,4.8,3.15,4.8,3.14-3.37,3.14-4.8S668.94,961.82,666,961.82Z" transform="translate(-131.2 -484.64)"/><path class="cls-2" d="M677.49,960.37c3.78,0,5,2.82,5,6.24s-1.19,6.25-5,6.25-5-2.82-5-6.25S673.71,960.37,677.49,960.37Zm0,1.45c-2.94,0-3.15,3.37-3.15,4.79s.21,4.8,3.15,4.8,3.14-3.37,3.14-4.8S680.43,961.82,677.49,961.82Z" transform="translate(-131.2 -484.64)"/><path class="cls-2" d="M689,960.37c3.78,0,5,2.82,5,6.24s-1.19,6.25-5,6.25-5-2.82-5-6.25S685.2,960.37,689,960.37Zm0,1.45c-2.94,0-3.15,3.37-3.15,4.79s.21,4.8,3.15,4.8,3.15-3.37,3.15-4.8S691.92,961.82,689,961.82Z" transform="translate(-131.2 -484.64)"/><path class="cls-2" d="M700.47,960.37c3.78,0,5,2.82,5,6.24s-1.19,6.25-5,6.25-5-2.82-5-6.25S696.69,960.37,700.47,960.37Zm0,1.45c-2.94,0-3.15,3.37-3.15,4.79s.21,4.8,3.15,4.8,3.15-3.37,3.15-4.8S703.41,961.82,700.47,961.82Z" transform="translate(-131.2 -484.64)"/><path class="cls-2" d="M706.74,975.85a11.55,11.55,0,0,0,0-15.55H708a10.51,10.51,0,0,1,0,15.55Z" transform="translate(-131.2 -484.64)"/><path class="cls-2" d="M780.85,944.69h7.34v1.58h-6.05l-.58,3.25a5.05,5.05,0,0,1,2.94-.86c2,0,4.59.89,4.59,4,0,2.56-1.91,4.25-5,4.25-2.79,0-4.6-1.52-4.7-3.48h1.77c.36,1.47,1.24,2,3.06,2,1.53,0,3.06-.58,3.06-2.73,0-1.83-1.34-2.62-3-2.62a3.57,3.57,0,0,0-2.85,1.14l-1.65-.1Z" transform="translate(-131.2 -484.64)"/><path class="cls-2" d="M795.85,944.41c3.78,0,5,2.82,5,6.24s-1.19,6.25-5,6.25-5-2.82-5-6.25S792.07,944.41,795.85,944.41Zm0,1.45c-2.94,0-3.15,3.37-3.15,4.79s.21,4.8,3.15,4.8,3.15-3.37,3.15-4.8S798.79,945.86,795.85,945.86Z" transform="translate(-131.2 -484.64)"/><path class="cls-2" d="M807.34,944.41c3.79,0,5,2.82,5,6.24s-1.18,6.25-5,6.25-5-2.82-5-6.25S803.56,944.41,807.34,944.41Zm0,1.45c-2.94,0-3.14,3.37-3.14,4.79s.2,4.8,3.14,4.8,3.15-3.37,3.15-4.8S810.28,945.86,807.34,945.86Z" transform="translate(-131.2 -484.64)"/><path class="cls-2" d="M818.83,944.41c3.79,0,5,2.82,5,6.24s-1.18,6.25-5,6.25-5-2.82-5-6.25S815.05,944.41,818.83,944.41Zm0,1.45c-2.94,0-3.14,3.37-3.14,4.79s.2,4.8,3.14,4.8,3.15-3.37,3.15-4.8S821.77,945.86,818.83,945.86Z" transform="translate(-131.2 -484.64)"/><path class="cls-2" d="M832.43,952.58c0,2.2,2.1,2.77,4,2.77s3.32-.74,3.32-2.08c0-1.12-.88-1.58-2.29-1.82l-2.78-.47c-1.46-.24-3.65-.82-3.65-3.21s1.77-3.74,4.92-3.74c2.46,0,5.06.9,5.23,3.86h-1.82c-.16-1-.71-2.27-3.65-2.27-1.34,0-2.85.56-2.85,2,0,.75.49,1.36,2,1.61l3,.52c1,.17,3.69.64,3.69,3.15,0,3.13-2.8,4-5.28,4-2.76,0-5.63-1-5.63-4.35Z" transform="translate(-131.2 -484.64)"/><path class="cls-2" d="M847.68,947.3c3.51,0,5.23,2.22,5.23,4.82s-1.72,4.81-5.23,4.81-5.22-2.22-5.22-4.81S844.18,947.3,847.68,947.3Zm0,1.45a3.37,3.37,0,1,0,3.41,3.37A3.15,3.15,0,0,0,847.68,948.75Z" transform="translate(-131.2 -484.64)"/><path class="cls-2" d="M854.62,944.24h1.72v12.38h-1.72Z" transform="translate(-131.2 -484.64)"/><path class="cls-2" d="M866.4,955.47h0a4.27,4.27,0,0,1-3.42,1.46,4.77,4.77,0,1,1,0-9.53,4.19,4.19,0,0,1,3.42,1.47h0v-4.63h1.72v12.38H866.4Zm-3.23,0a3.32,3.32,0,1,0-3.3-3.32A3.11,3.11,0,0,0,863.17,955.49Z" transform="translate(-131.2 -484.64)"/><path class="cls-2" d="M777.46,966.66c0-2.53,1.45-4.32,4.73-4.32,3.1,0,4.5,1.65,4.5,3.83,0,4.2-5.84,4-7.23,6.8h7.23v1.58h-9.45c.34-5.59,7.63-4.9,7.63-8.39,0-1.74-1.18-2.37-2.58-2.37-2.15,0-3.06,1.18-3.11,2.87Z" transform="translate(-131.2 -484.64)"/><path class="cls-2" d="M793.35,977.81a10.52,10.52,0,0,1,0-15.54h1.29a11.56,11.56,0,0,0,0,15.54Z" transform="translate(-131.2 -484.64)"/><path class="cls-2" d="M800.41,969.18c-2-.32-4.37-.91-4.37-3.4s2.31-3.44,4.37-3.44v-1.53h.82v1.53c3,0,4.3,1.43,4.46,3.35H804c-.16-1.25-1.17-1.84-2.74-1.9v3.86c3.37.55,4.78,1.43,4.78,3.58,0,2.54-2.37,3.59-4.78,3.59v1.53h-.82v-1.53c-2.48,0-4.59-1.32-4.61-3.81h1.72c.07.86.53,2.23,2.89,2.37Zm0-5.39c-1.63.08-2.65.7-2.65,1.87s1,1.7,2.65,1.89Zm.82,9.59c2.1,0,3.06-.88,3.06-2s-.82-1.79-3.06-2.08Z" transform="translate(-131.2 -484.64)"/><path class="cls-2" d="M807.45,966.66c0-2.53,1.44-4.32,4.73-4.32,3.09,0,4.5,1.65,4.5,3.83,0,4.2-5.85,4-7.24,6.8h7.24v1.58h-9.46c.35-5.59,7.64-4.9,7.64-8.39,0-1.74-1.19-2.37-2.58-2.37-2.15,0-3.06,1.18-3.11,2.87Z" transform="translate(-131.2 -484.64)"/><path class="cls-2" d="M820.38,962.62h7.35v1.58h-6.06l-.58,3.25a5.08,5.08,0,0,1,2.94-.86c2,0,4.59.89,4.59,4,0,2.56-1.91,4.24-5,4.24-2.79,0-4.59-1.51-4.7-3.47h1.77c.37,1.46,1.24,2,3.07,2,1.53,0,3.06-.59,3.06-2.73,0-1.83-1.34-2.62-3-2.62a3.56,3.56,0,0,0-2.86,1.14l-1.65-.11Z" transform="translate(-131.2 -484.64)"/><path class="cls-2" d="M835.38,962.34c3.79,0,5,2.82,5,6.24s-1.18,6.24-5,6.24-5-2.82-5-6.24S831.6,962.34,835.38,962.34Zm0,1.45c-2.94,0-3.14,3.36-3.14,4.79s.2,4.8,3.14,4.8,3.15-3.37,3.15-4.8S838.32,963.79,835.38,963.79Z" transform="translate(-131.2 -484.64)"/><path class="cls-2" d="M846.88,962.34c3.78,0,5,2.82,5,6.24s-1.18,6.24-5,6.24-5-2.82-5-6.24S843.09,962.34,846.88,962.34Zm0,1.45c-2.94,0-3.15,3.36-3.15,4.79s.21,4.8,3.15,4.8S850,970,850,968.58,849.82,963.79,846.88,963.79Z" transform="translate(-131.2 -484.64)"/><path class="cls-2" d="M858.37,962.34c3.78,0,5,2.82,5,6.24s-1.19,6.24-5,6.24-5-2.82-5-6.24S854.58,962.34,858.37,962.34Zm0,1.45c-2.94,0-3.15,3.36-3.15,4.79s.21,4.8,3.15,4.8,3.14-3.37,3.14-4.8S861.31,963.79,858.37,963.79Z" transform="translate(-131.2 -484.64)"/><path class="cls-2" d="M864.63,977.81a11.53,11.53,0,0,0,0-15.54h1.29a10.5,10.5,0,0,1,0,15.54Z" transform="translate(-131.2 -484.64)"/><path class="cls-2" d="M935.6,963.82c0-2.53,1.44-4.32,4.73-4.32,3.09,0,4.5,1.65,4.5,3.84,0,4.19-5.84,4-7.24,6.79h7.24v1.58h-9.45c.34-5.59,7.63-4.9,7.63-8.39,0-1.74-1.19-2.37-2.58-2.37-2.15,0-3.06,1.18-3.11,2.87Z" transform="translate(-131.2 -484.64)"/><path class="cls-2" d="M951.49,975a10.51,10.51,0,0,1,0-15.55h1.29a11.55,11.55,0,0,0,0,15.55Z" transform="translate(-131.2 -484.64)"/><path class="cls-2" d="M958.55,966.34c-2-.32-4.37-.91-4.37-3.4s2.3-3.44,4.37-3.44V958h.82v1.53c3,0,4.3,1.43,4.46,3.35h-1.72c-.16-1.25-1.17-1.84-2.74-1.9v3.86c3.37.55,4.78,1.43,4.78,3.58,0,2.54-2.37,3.59-4.78,3.59v1.54h-.82V972c-2.48,0-4.59-1.32-4.61-3.81h1.72c.07.86.53,2.23,2.89,2.37Zm0-5.39c-1.64.08-2.65.7-2.65,1.87s1,1.7,2.65,1.89Zm.82,9.59c2.1,0,3.06-.88,3.06-2s-.82-1.79-3.06-2.08Z" transform="translate(-131.2 -484.64)"/><path class="cls-2" d="M965.59,963.82c0-2.53,1.44-4.32,4.72-4.32,3.1,0,4.51,1.65,4.51,3.84,0,4.19-5.85,4-7.24,6.79h7.24v1.58h-9.46c.35-5.59,7.64-4.9,7.64-8.39,0-1.74-1.19-2.37-2.58-2.37-2.15,0-3.06,1.18-3.12,2.87Z" transform="translate(-131.2 -484.64)"/><path class="cls-2" d="M982,959.5c3.78,0,5,2.82,5,6.24s-1.19,6.24-5,6.24-5-2.82-5-6.24S978.25,959.5,982,959.5Zm0,1.45c-2.94,0-3.15,3.37-3.15,4.79s.21,4.8,3.15,4.8,3.14-3.37,3.14-4.8S985,961,982,961Z" transform="translate(-131.2 -484.64)"/><path class="cls-2" d="M993.52,959.5c3.78,0,5,2.82,5,6.24s-1.19,6.24-5,6.24-5-2.82-5-6.24S989.74,959.5,993.52,959.5Zm0,1.45c-2.94,0-3.15,3.37-3.15,4.79s.21,4.8,3.15,4.8,3.15-3.37,3.15-4.8S996.46,961,993.52,961Z" transform="translate(-131.2 -484.64)"/><path class="cls-2" d="M1005,959.5c3.79,0,5,2.82,5,6.24s-1.18,6.24-5,6.24-5-2.82-5-6.24S1001.23,959.5,1005,959.5Zm0,1.45c-2.94,0-3.14,3.37-3.14,4.79s.2,4.8,3.14,4.8,3.15-3.37,3.15-4.8S1008,961,1005,961Z" transform="translate(-131.2 -484.64)"/><path class="cls-2" d="M1016.5,959.5c3.79,0,5,2.82,5,6.24s-1.18,6.24-5,6.24-5-2.82-5-6.24S1012.72,959.5,1016.5,959.5Zm0,1.45c-2.94,0-3.14,3.37-3.14,4.79s.2,4.8,3.14,4.8,3.15-3.37,3.15-4.8S1019.44,961,1016.5,961Z" transform="translate(-131.2 -484.64)"/><path class="cls-2" d="M1022.77,975a11.55,11.55,0,0,0,0-15.55h1.29a10.51,10.51,0,0,1,0,15.55Z" transform="translate(-131.2 -484.64)"/><path class="cls-2" d="M943.65,952h-6.28v-1.58l6.48-7.79h1.52v7.93h2.09V952h-2.09v2.91h-1.72Zm0-7h0l-4.52,5.52h4.56Z" transform="translate(-131.2 -484.64)"/><path class="cls-2" d="M954,942.67c3.78,0,5,2.82,5,6.24s-1.19,6.24-5,6.24-5-2.82-5-6.24S950.2,942.67,954,942.67Zm0,1.44c-2.94,0-3.15,3.37-3.15,4.8s.21,4.8,3.15,4.8,3.14-3.37,3.14-4.8S956.93,944.11,954,944.11Z" transform="translate(-131.2 -484.64)"/><path class="cls-2" d="M965.48,942.67c3.78,0,5,2.82,5,6.24s-1.19,6.24-5,6.24-5-2.82-5-6.24S961.7,942.67,965.48,942.67Zm0,1.44c-2.94,0-3.15,3.37-3.15,4.8s.21,4.8,3.15,4.8,3.15-3.37,3.15-4.8S968.42,944.11,965.48,944.11Z" transform="translate(-131.2 -484.64)"/><path class="cls-2" d="M977,942.67c3.78,0,5,2.82,5,6.24s-1.19,6.24-5,6.24-5-2.82-5-6.24S973.19,942.67,977,942.67Zm0,1.44c-2.94,0-3.15,3.37-3.15,4.8s.21,4.8,3.15,4.8,3.15-3.37,3.15-4.8S979.91,944.11,977,944.11Z" transform="translate(-131.2 -484.64)"/><path class="cls-2" d="M990.56,950.84c0,2.2,2.1,2.76,4,2.76s3.32-.74,3.32-2.08c0-1.11-.88-1.58-2.29-1.82l-2.78-.46c-1.47-.24-3.65-.83-3.65-3.22,0-2.23,1.77-3.73,4.92-3.73,2.46,0,5.05.89,5.23,3.85h-1.83c-.15-1-.7-2.27-3.64-2.27-1.34,0-2.86.57-2.86,2,0,.76.5,1.36,2,1.62l3,.52c1,.17,3.7.63,3.7,3.14,0,3.13-2.8,4-5.28,4-2.77,0-5.64-1-5.64-4.35Z" transform="translate(-131.2 -484.64)"/><path class="cls-2" d="M1005.82,945.56c3.51,0,5.23,2.22,5.23,4.81s-1.72,4.82-5.23,4.82-5.22-2.22-5.22-4.82S1002.31,945.56,1005.82,945.56Zm0,1.44a3.37,3.37,0,1,0,3.41,3.37A3.15,3.15,0,0,0,1005.82,947Z" transform="translate(-131.2 -484.64)"/><path class="cls-2" d="M1012.76,942.5h1.72v12.38h-1.72Z" transform="translate(-131.2 -484.64)"/><path class="cls-2" d="M1024.54,953.72h0a4.29,4.29,0,0,1-3.42,1.47,4.77,4.77,0,1,1,0-9.53,4.18,4.18,0,0,1,3.42,1.46h0V942.5h1.72v12.38h-1.72Zm-3.24,0a3.32,3.32,0,1,0-3.3-3.32A3.11,3.11,0,0,0,1021.3,953.74Z" transform="translate(-131.2 -484.64)"/><path class="cls-2" d="M238.51,562.21q7.35,0,8.83-5.57h4.35V589.4h-5.92V566.59h-7.26Z" transform="translate(-131.2 -484.64)"/><path class="cls-2" d="M332.56,839.17H338c.09,1.82.81,2.73,2.19,2.73a3.08,3.08,0,0,0,2.72-1.29,7.13,7.13,0,0,0,.89-4v-3.17a4.91,4.91,0,0,1-4.5,2.34q-3.9,0-5.65-2.51t-1.73-7.85c0-4.35.65-7.48,2-9.41s3.61-2.9,6.89-2.9,5.65,1.05,6.92,3.15,1.92,5.12,1.92,9.05v8.19q0,7.11-2,10.15t-7.19,3a8.43,8.43,0,0,1-5.82-1.84,6.33,6.33,0,0,1-2-4.89Zm5.28-16.79V827q0,4,2.91,4t3-4.82v-2.83a9.5,9.5,0,0,0-.65-4.14,2.28,2.28,0,0,0-2.21-1.22,2.67,2.67,0,0,0-2.29,1A6,6,0,0,0,337.84,822.38Z" transform="translate(-131.2 -484.64)"/><path class="cls-2" d="M329.05,1054.46q7.33,0,8.82-5.57h4.35v32.76H336.3v-22.81h-7.25Z" transform="translate(-131.2 -484.64)"/><path class="cls-2" d="M350.55,1072.73v-14.79q0-9.21,8.64-9.2t8.5,9.43v14.63q0,9.51-8.5,9.52T350.55,1072.73Zm5.92-14.58v14.75q0,4.59,2.52,4.59,2.77,0,2.78-4.67v-14.67q0-4.59-2.66-4.59T356.47,1058.15Z" transform="translate(-131.2 -484.64)"/><path class="cls-2" d="M559.68,1054.46q7.34,0,8.82-5.57h4.35v32.76h-5.92v-22.81h-7.25Z" transform="translate(-131.2 -484.64)"/><path class="cls-2" d="M580.79,1054.46q7.34,0,8.83-5.57H594v32.76h-5.92v-22.81h-7.26Z" transform="translate(-131.2 -484.64)"/><path class="cls-2" d="M499.61,828.26a6.25,6.25,0,0,1-2.86-2.57,10.66,10.66,0,0,1-.93-5,7.25,7.25,0,0,1,2.19-5.43,8.42,8.42,0,0,1,6.12-2.12q8.16,0,8.17,8.21a9,9,0,0,1-1,4.79,6.41,6.41,0,0,1-3.1,2.25,6.49,6.49,0,0,1,3.45,2.16c.85,1.05,1.28,3.09,1.28,6.14q0,10-8.77,10-4.69,0-6.86-2.34t-2.17-7.54q0-4,1.09-5.77A7.21,7.21,0,0,1,499.61,828.26Zm1.47,7v2.53q0,4.08,3.05,4.08t2.91-4.51v-2.53q0-4.25-2.91-4.24T501.08,835.29Zm.18-13.25c0,2.8.95,4.2,2.83,4.2s2.76-1.52,2.76-4.57q0-3.7-2.72-3.7C502.22,818,501.26,819.32,501.26,822Z" transform="translate(-131.2 -484.64)"/><path class="cls-2" d="M657.6,846.06q0-3.84,2.51-12.78a57.77,57.77,0,0,1,6.06-14.65H653.62v-4.82h17.81v4.41a61.68,61.68,0,0,0-5.69,14.8,68.48,68.48,0,0,0-2,13Z" transform="translate(-131.2 -484.64)"/><path class="cls-2" d="M816.84,826.39a4.88,4.88,0,0,1,4.5-2.33q3.87,0,5.63,2.53c1.16,1.68,1.75,4.29,1.75,7.82,0,4.18-.63,7.27-1.88,9.29s-3.56,3-7,3-5.65-1-6.92-3.13-1.92-5.12-1.92-9.07v-8.17q0-7.1,2-10.14c1.33-2.05,3.74-3.07,7.21-3.07q4.23,0,6,2a6.92,6.92,0,0,1,1.81,4.72v.79h-5.44a3.34,3.34,0,0,0-.7-2.12,2,2,0,0,0-1.49-.6c-2.41,0-3.61,1.75-3.61,5.27Zm.08,7.32v2.85a9.75,9.75,0,0,0,.64,4.14,2.31,2.31,0,0,0,2.23,1.2,2.68,2.68,0,0,0,2.27-.95,5.9,5.9,0,0,0,.74-3.47v-4.59q0-4-2.91-4T816.92,833.71Z" transform="translate(-131.2 -484.64)"/><path class="cls-2" d="M976.13,835.74a13.37,13.37,0,0,0,.6,4.81,2.3,2.3,0,0,0,2.3,1.35q2.81,0,2.8-5.58v-2.21q0-5.57-3-5.57a2.65,2.65,0,0,0-2.68,2.38h-4.64l.72-17.12h13.56v4.83H976.2l-.32,7a4.86,4.86,0,0,1,4.09-1.89,5.72,5.72,0,0,1,5.43,2.92c1.11,1.93,1.66,4.79,1.66,8.6q0,6.06-1.91,8.79a6.71,6.71,0,0,1-5.89,2.7c-3.06,0-5.16-.82-6.32-2.47s-1.71-4.48-1.71-8.51Z" transform="translate(-131.2 -484.64)"/><path class="cls-2" d="M453.61,582q.88-2.81,5.11-7.44l2.78-3a14.61,14.61,0,0,0,2.38-3.07,7.21,7.21,0,0,0,.61-3.28q0-3.84-2.86-3.84a2.59,2.59,0,0,0-2.64,1.33,13.44,13.44,0,0,0-.58,4.83h-5.55v-1.33q0-9.66,8.71-9.65c3,0,5.18.82,6.63,2.46a8.7,8.7,0,0,1,2.21,6.07,12.92,12.92,0,0,1-3.92,9L462,578.94c-2.06,2.19-3.1,4.07-3.1,5.64H470v4.82H452.6A27.67,27.67,0,0,1,453.61,582Z" transform="translate(-131.2 -484.64)"/><path class="cls-2" d="M671.18,578.4a15.15,15.15,0,0,0,.64,5.41,2.64,2.64,0,0,0,2.7,1.43,2.3,2.3,0,0,0,2.49-1.5,13.85,13.85,0,0,0,.5-4.18,7.75,7.75,0,0,0-.79-4q-.78-1.3-5.15-1.3v-4.83c2.12,0,3.56-.29,4.33-.88s1.15-1.82,1.15-3.67q0-3.6-2.76-3.6a2.43,2.43,0,0,0-2.74,2.75v2H666v-1.2q0-8.4,8.27-8.4,8.52,0,8.52,8.34a8.75,8.75,0,0,1-1.18,4.8,4.3,4.3,0,0,1-3.18,2.1q5,.74,5,8,0,10.38-9.17,10.38-8.62,0-8.62-9.57v-2.1Z" transform="translate(-131.2 -484.64)"/><path class="cls-2" d="M891,581l9.61-20.76h6.56V581h2.68v4.82h-2.68v6.71h-5.92v-6.71H891Zm4.35,0h5.9V567.53Z" transform="translate(-131.2 -484.64)"/><path d="M207.77,529.68c-1.56-5.61,9.11-11.75,15.6-14.91l1.49-.72.06,1.65a12.76,12.76,0,0,0,.19,1.95l-1.06.22,1.08-.11.05.15a.34.34,0,0,0,.06.12l-.92.57,1-.44.49.38,1.86.63.57.1,2.36.21,1.16,0h.42l.84,0,6.3-.63,1.07-.18,1.09-.19,8.14-1.92,7.28-2.41,5.65-2.47,3.71-2.1,2.32-1.76.2-.19.18-.18.79-1,.34-.88s0-.09,0-.13l-.08-.25a13.07,13.07,0,0,0-.94-1.95l-.8-1.44,1.64-.16a78.85,78.85,0,0,1,7.92-.44c8.41,0,13.34,1.75,14.26,5.06,1.21,4.34-5,9-10.43,12.17-7.28,4.23-17.39,8.25-28.46,11.32-11.54,3.21-22.61,5-31.17,5C213.62,534.74,208.69,533,207.77,529.68Z" transform="translate(-131.2 -484.64)"/><path d="M271.71,503.65c.14.31.25.59.34.83l0,.1c0,.08.05.16.08.24s0,.17,0,.24a3.12,3.12,0,0,1,.05.55c0,.08,0,.17,0,.26s0,.17,0,.24,0,.17-.07.28,0,.16-.07.25-.06.17-.09.23a1.33,1.33,0,0,1-.11.24,2,2,0,0,1-.13.25,2.1,2.1,0,0,1-.14.24l-.31.45c-.05.08-.11.15-.17.23l-.2.23-.41.44-.22.22-.24.23-.26.23-.8.66-.29.22-1.28.89L262.63,514,255.49,517l-7.72,2.34-7,1.49-1.1.18-1.09.16-5.46.5-.9,0h-.53c-.4,0-.78,0-1.16,0l-1.91-.14-.35,0-.36-.06c-.23,0-.45-.07-.67-.12l-.91-.22L226,521l-.28-.09-.27-.11-.25-.11-.25-.12-.25-.13-.23-.14-.21-.15a1.92,1.92,0,0,1-.21-.16l-.2-.18-.17-.19a1.4,1.4,0,0,1-.17-.2l-.15-.22a2.69,2.69,0,0,1-.24-.48,1.6,1.6,0,0,1-.08-.26,1.17,1.17,0,0,1,0-.16l0-.19c0-.19-.08-.41-.11-.65-10.5,5.33-13.62,9.59-13,11.67s5.16,3.47,12.18,3.47c8.25,0,19.4-1.78,30.6-4.89,10.89-3,20.82-7,27.94-11.11,6.55-3.81,10.07-7.44,9.44-9.72s-5.16-3.48-12.18-3.48C275.94,503.37,273.89,503.47,271.71,503.65Z" transform="translate(-131.2 -484.64)"/><path d="M223.08,518.43c-.55-1.95-.68-8.86,1.47-15.93,1.93-6.33,6.23-14.44,15.79-17.09a20.7,20.7,0,0,1,5.55-.77c15,0,25.31,16.75,26.26,20.17.62,2.22-1.46,4.73-6.17,7.47a72,72,0,0,1-16.37,6.52,70.45,70.45,0,0,1-17.94,2.86C226.56,521.66,223.67,520.58,223.08,518.43Z" transform="translate(-131.2 -484.64)"/><path class="cls-3" d="M240.92,487.49c-8.62,2.39-12.53,9.82-14.3,15.64-2,6.7-1.87,13.25-1.46,14.73.17.61,1.73,1.64,6.51,1.64A69.39,69.39,0,0,0,249,516.72a70.5,70.5,0,0,0,15.86-6.3c4.47-2.6,5.36-4.39,5.18-5-.76-2.76-10.4-18.59-24.18-18.59A18.45,18.45,0,0,0,240.92,487.49Z" transform="translate(-131.2 -484.64)"/><path class="cls-3" d="M229.81,525.33c-1,.34-1.77,1.28-1.57,2s1.21,1,2.2.69,1.77-1.28,1.57-2a1.34,1.34,0,0,0-1.4-.82A2.84,2.84,0,0,0,229.81,525.33Z" transform="translate(-131.2 -484.64)"/><path class="cls-3" d="M220,523.25c-1.6.28-2.83,1.47-2.92,2.37a.64.64,0,0,0,.16.56,2.08,2.08,0,0,0,1.81.36c1.61-.28,2.83-1.47,2.93-2.37a.68.68,0,0,0-.17-.56,1.67,1.67,0,0,0-1.23-.41A4,4,0,0,0,220,523.25Z" transform="translate(-131.2 -484.64)"/><path class="cls-3" d="M241.39,523.81a2,2,0,0,0-1.23.55,1.23,1.23,0,0,0-.37,1,1.6,1.6,0,0,0,1.83,1.21,2,2,0,0,0,1.23-.56,1.25,1.25,0,0,0,.37-1,1.55,1.55,0,0,0-1.65-1.22Z" transform="translate(-131.2 -484.64)"/><path class="cls-3" d="M251.05,522a1.58,1.58,0,0,0-1.29,1.78,1.61,1.61,0,0,0,2,.86,1.9,1.9,0,0,0,1.1-.78,1.23,1.23,0,0,0,.19-1,1.44,1.44,0,0,0-1.46-.93A2.1,2.1,0,0,0,251.05,522Z" transform="translate(-131.2 -484.64)"/><path class="cls-3" d="M260.26,518.57a1.87,1.87,0,0,0-.94,1,1.21,1.21,0,0,0,0,1,1.62,1.62,0,0,0,2.14.47,1.58,1.58,0,0,0,.94-2,1.34,1.34,0,0,0-1.25-.69A2,2,0,0,0,260.26,518.57Z" transform="translate(-131.2 -484.64)"/><path class="cls-3" d="M271,513.91a2.2,2.2,0,0,0-1.41.93,1,1,0,0,0-.13.79c.21.71,1.33,1.15,2.39.91a2.2,2.2,0,0,0,1.4-.93,1,1,0,0,0,.13-.79,1.76,1.76,0,0,0-1.76-1A2.57,2.57,0,0,0,271,513.91Z" transform="translate(-131.2 -484.64)"/><path class="cls-3" d="M278.29,507.07a2.1,2.1,0,0,0-1.36,1.18.68.68,0,0,0,.14.63c.58.76,2.39,1,3.73.52a2.13,2.13,0,0,0,1.35-1.18.68.68,0,0,0-.14-.63,2.8,2.8,0,0,0-2.18-.81A4.21,4.21,0,0,0,278.29,507.07Z" transform="translate(-131.2 -484.64)"/></svg>